%TF.GenerationSoftware,KiCad,Pcbnew,7.0.10*%
%TF.CreationDate,2024-02-22T22:17:08-08:00*%
%TF.ProjectId,PicoProbePCB,5069636f-5072-46f6-9265-5043422e6b69,rev?*%
%TF.SameCoordinates,Original*%
%TF.FileFunction,Copper,L2,Bot*%
%TF.FilePolarity,Positive*%
%FSLAX46Y46*%
G04 Gerber Fmt 4.6, Leading zero omitted, Abs format (unit mm)*
G04 Created by KiCad (PCBNEW 7.0.10) date 2024-02-22 22:17:08*
%MOMM*%
%LPD*%
G01*
G04 APERTURE LIST*
G04 Aperture macros list*
%AMRoundRect*
0 Rectangle with rounded corners*
0 $1 Rounding radius*
0 $2 $3 $4 $5 $6 $7 $8 $9 X,Y pos of 4 corners*
0 Add a 4 corners polygon primitive as box body*
4,1,4,$2,$3,$4,$5,$6,$7,$8,$9,$2,$3,0*
0 Add four circle primitives for the rounded corners*
1,1,$1+$1,$2,$3*
1,1,$1+$1,$4,$5*
1,1,$1+$1,$6,$7*
1,1,$1+$1,$8,$9*
0 Add four rect primitives between the rounded corners*
20,1,$1+$1,$2,$3,$4,$5,0*
20,1,$1+$1,$4,$5,$6,$7,0*
20,1,$1+$1,$6,$7,$8,$9,0*
20,1,$1+$1,$8,$9,$2,$3,0*%
%AMFreePoly0*
4,1,28,0.605014,0.794986,0.644504,0.794986,0.724698,0.756366,0.780194,0.686777,0.800000,0.600000,0.800000,-0.600000,0.780194,-0.686777,0.724698,-0.756366,0.644504,-0.794986,0.605014,-0.794986,0.600000,-0.800000,0.000000,-0.800000,-0.178017,-0.779942,-0.347107,-0.720775,-0.498792,-0.625465,-0.625465,-0.498792,-0.720775,-0.347107,-0.779942,-0.178017,-0.800000,0.000000,-0.779942,0.178017,
-0.720775,0.347107,-0.625465,0.498792,-0.498792,0.625465,-0.347107,0.720775,-0.178017,0.779942,0.000000,0.800000,0.600000,0.800000,0.605014,0.794986,0.605014,0.794986,$1*%
%AMFreePoly1*
4,1,28,0.178017,0.779942,0.347107,0.720775,0.498792,0.625465,0.625465,0.498792,0.720775,0.347107,0.779942,0.178017,0.800000,0.000000,0.779942,-0.178017,0.720775,-0.347107,0.625465,-0.498792,0.498792,-0.625465,0.347107,-0.720775,0.178017,-0.779942,0.000000,-0.800000,-0.600000,-0.800000,-0.605014,-0.794986,-0.644504,-0.794986,-0.724698,-0.756366,-0.780194,-0.686777,-0.800000,-0.600000,
-0.800000,0.600000,-0.780194,0.686777,-0.724698,0.756366,-0.644504,0.794986,-0.605014,0.794986,-0.600000,0.800000,0.000000,0.800000,0.178017,0.779942,0.178017,0.779942,$1*%
G04 Aperture macros list end*
%TA.AperFunction,ComponentPad*%
%ADD10RoundRect,0.200000X-0.600000X-0.600000X0.600000X-0.600000X0.600000X0.600000X-0.600000X0.600000X0*%
%TD*%
%TA.AperFunction,ComponentPad*%
%ADD11C,1.600000*%
%TD*%
%TA.AperFunction,ComponentPad*%
%ADD12FreePoly0,0.000000*%
%TD*%
%TA.AperFunction,ComponentPad*%
%ADD13FreePoly1,0.000000*%
%TD*%
%TA.AperFunction,ComponentPad*%
%ADD14R,1.700000X1.700000*%
%TD*%
%TA.AperFunction,ComponentPad*%
%ADD15O,1.700000X1.700000*%
%TD*%
%TA.AperFunction,Conductor*%
%ADD16C,1.000000*%
%TD*%
G04 APERTURE END LIST*
D10*
%TO.P,U2,1,GPIO0*%
%TO.N,unconnected-(U2-GPIO0-Pad1)*%
X165235000Y-75590000D03*
D11*
%TO.P,U2,2,GPIO1*%
%TO.N,unconnected-(U2-GPIO1-Pad2)*%
X165235000Y-78130000D03*
D12*
%TO.P,U2,3,GND*%
%TO.N,GND*%
X165235000Y-80670000D03*
D11*
%TO.P,U2,4,GPIO2*%
%TO.N,Net-(J1-Pin_1)*%
X165235000Y-83210000D03*
%TO.P,U2,5,GPIO3*%
%TO.N,Net-(J1-Pin_3)*%
X165235000Y-85750000D03*
%TO.P,U2,6,GPIO4*%
%TO.N,Net-(U1-GPIO0)*%
X165235000Y-88290000D03*
%TO.P,U2,7,GPIO5*%
%TO.N,Net-(U1-GPIO1)*%
X165235000Y-90830000D03*
%TO.P,U2,18,GND*%
%TO.N,GND*%
X165235000Y-118770000D03*
%TO.P,U2,19,GPIO14*%
%TO.N,unconnected-(U2-GPIO14-Pad19)*%
X165235000Y-121310000D03*
%TO.P,U2,20,GPIO15*%
%TO.N,unconnected-(U2-GPIO15-Pad20)*%
X165235000Y-123850000D03*
%TO.P,U2,21,GPIO16*%
%TO.N,unconnected-(U2-GPIO16-Pad21)*%
X183015000Y-123850000D03*
%TO.P,U2,22,GPIO17*%
%TO.N,unconnected-(U2-GPIO17-Pad22)*%
X183015000Y-121310000D03*
%TO.P,U2,23,GND*%
%TO.N,GND*%
X183015000Y-118770000D03*
D13*
%TO.P,U2,38,GND*%
X183015000Y-80670000D03*
D11*
%TO.P,U2,39,VSYS*%
%TO.N,VCC*%
X183015000Y-78130000D03*
%TO.P,U2,40,VBUS*%
%TO.N,unconnected-(U2-VBUS-Pad40)*%
X183015000Y-75590000D03*
%TO.P,U2,D1*%
%TO.N,N/C*%
X171585000Y-123850000D03*
%TO.P,U2,D2*%
X174125000Y-123850000D03*
%TO.P,U2,D3*%
X176665000Y-123850000D03*
%TD*%
D14*
%TO.P,J1,1,Pin_1*%
%TO.N,Net-(J1-Pin_1)*%
X207184000Y-128985000D03*
D15*
%TO.P,J1,2,Pin_2*%
%TO.N,GND*%
X209724000Y-128985000D03*
%TO.P,J1,3,Pin_3*%
%TO.N,Net-(J1-Pin_3)*%
X212264000Y-128985000D03*
%TD*%
D10*
%TO.P,U1,1,GPIO0*%
%TO.N,Net-(U1-GPIO0)*%
X200795000Y-75590000D03*
D11*
%TO.P,U1,2,GPIO1*%
%TO.N,Net-(U1-GPIO1)*%
X200795000Y-78130000D03*
D12*
%TO.P,U1,3,GND*%
%TO.N,GND*%
X200795000Y-80670000D03*
D11*
%TO.P,U1,4,GPIO2*%
%TO.N,unconnected-(U1-GPIO2-Pad4)*%
X200795000Y-83210000D03*
%TO.P,U1,5,GPIO3*%
%TO.N,unconnected-(U1-GPIO3-Pad5)*%
X200795000Y-85750000D03*
%TO.P,U1,6,GPIO4*%
%TO.N,unconnected-(U1-GPIO4-Pad6)*%
X200795000Y-88290000D03*
%TO.P,U1,7,GPIO5*%
%TO.N,unconnected-(U1-GPIO5-Pad7)*%
X200795000Y-90830000D03*
%TO.P,U1,18,GND*%
%TO.N,GND*%
X200795000Y-118770000D03*
%TO.P,U1,19,GPIO14*%
%TO.N,unconnected-(U1-GPIO14-Pad19)*%
X200795000Y-121310000D03*
%TO.P,U1,20,GPIO15*%
%TO.N,unconnected-(U1-GPIO15-Pad20)*%
X200795000Y-123850000D03*
%TO.P,U1,21,GPIO16*%
%TO.N,unconnected-(U1-GPIO16-Pad21)*%
X218575000Y-123850000D03*
%TO.P,U1,22,GPIO17*%
%TO.N,unconnected-(U1-GPIO17-Pad22)*%
X218575000Y-121310000D03*
%TO.P,U1,23,GND*%
%TO.N,GND*%
X218575000Y-118770000D03*
D13*
%TO.P,U1,38,GND*%
X218575000Y-80670000D03*
D11*
%TO.P,U1,39,VSYS*%
%TO.N,VCC*%
X218575000Y-78130000D03*
%TO.P,U1,40,VBUS*%
%TO.N,unconnected-(U1-VBUS-Pad40)*%
X218575000Y-75590000D03*
%TO.P,U1,D1,SWCLK*%
%TO.N,Net-(J1-Pin_1)*%
X207145000Y-123850000D03*
%TO.P,U1,D2,GND*%
%TO.N,GND*%
X209685000Y-123850000D03*
%TO.P,U1,D3,SWDIO*%
%TO.N,Net-(J1-Pin_3)*%
X212225000Y-123850000D03*
%TD*%
D16*
%TO.N,Net-(U1-GPIO0)*%
X200795000Y-75590000D02*
X198895000Y-73690000D01*
X164090980Y-73690000D02*
X162560000Y-75220980D01*
X198895000Y-73690000D02*
X164090980Y-73690000D01*
X162560000Y-86746370D02*
X164103630Y-88290000D01*
X162560000Y-75220980D02*
X162560000Y-86746370D01*
X164103630Y-88290000D02*
X165235000Y-88290000D01*
%TO.N,Net-(J1-Pin_1)*%
X165235000Y-83210000D02*
X172110000Y-83210000D01*
X172110000Y-83210000D02*
X207145000Y-118245000D01*
X207145000Y-118245000D02*
X207145000Y-123850000D01*
%TO.N,Net-(U1-GPIO1)*%
X200795000Y-78130000D02*
X201926370Y-78130000D01*
X160960000Y-74558238D02*
X160960000Y-87686370D01*
X201926370Y-78130000D02*
X203200000Y-76856370D01*
X203200000Y-76856370D02*
X203200000Y-74950980D01*
X200339020Y-72090000D02*
X163428238Y-72090000D01*
X164103630Y-90830000D02*
X165235000Y-90830000D01*
X203200000Y-74950980D02*
X200339020Y-72090000D01*
X163428238Y-72090000D02*
X160960000Y-74558238D01*
X160960000Y-87686370D02*
X164103630Y-90830000D01*
%TO.N,Net-(J1-Pin_3)*%
X165235000Y-85750000D02*
X166366370Y-85750000D01*
X166366370Y-85750000D02*
X198895000Y-118278630D01*
X198895000Y-118278630D02*
X198895000Y-125602994D01*
X205372006Y-132080000D02*
X210371081Y-132080000D01*
X198895000Y-125602994D02*
X205372006Y-132080000D01*
X210371081Y-132080000D02*
X212264000Y-130187081D01*
X212264000Y-130187081D02*
X212264000Y-128985000D01*
%TO.N,VCC*%
X218575000Y-78130000D02*
X217443630Y-78130000D01*
X181109857Y-82049857D02*
X181109857Y-78903773D01*
X202843630Y-92730000D02*
X191790000Y-92730000D01*
X181109857Y-78903773D02*
X181883630Y-78130000D01*
X191790000Y-92730000D02*
X181109857Y-82049857D01*
X217443630Y-78130000D02*
X202843630Y-92730000D01*
X181883630Y-78130000D02*
X183015000Y-78130000D01*
%TO.N,GND*%
X165235000Y-118770000D02*
X183015000Y-118770000D01*
%TO.N,Net-(J1-Pin_3)*%
X212225000Y-123850000D02*
X212225000Y-128946000D01*
X212225000Y-128946000D02*
X212264000Y-128985000D01*
%TO.N,GND*%
X209685000Y-120515000D02*
X209685000Y-123850000D01*
X218575000Y-80670000D02*
X218575000Y-118770000D01*
X209724000Y-128985000D02*
X209724000Y-123889000D01*
X200795000Y-80670000D02*
X183015000Y-80670000D01*
X218575000Y-118770000D02*
X211430000Y-118770000D01*
X209724000Y-123889000D02*
X209685000Y-123850000D01*
X211430000Y-118770000D02*
X209685000Y-120515000D01*
%TD*%
M02*
