%TF.GenerationSoftware,KiCad,Pcbnew,8.0.0*%
%TF.CreationDate,2024-02-29T00:18:19-08:00*%
%TF.ProjectId,PicoProbePCB,5069636f-5072-46f6-9265-5043422e6b69,rev?*%
%TF.SameCoordinates,Original*%
%TF.FileFunction,Legend,Top*%
%TF.FilePolarity,Positive*%
%FSLAX46Y46*%
G04 Gerber Fmt 4.6, Leading zero omitted, Abs format (unit mm)*
G04 Created by KiCad (PCBNEW 8.0.0) date 2024-02-29 00:18:19*
%MOMM*%
%LPD*%
G01*
G04 APERTURE LIST*
%ADD10C,0.150000*%
%ADD11C,0.200000*%
%ADD12C,0.300000*%
%ADD13C,0.400000*%
%ADD14C,0.120000*%
G04 APERTURE END LIST*
D10*
X176530000Y-126898400D02*
X176530000Y-137160000D01*
X157429200Y-126898400D02*
X176530000Y-126898400D01*
D11*
X160959463Y-130256596D02*
X160459463Y-129542310D01*
X160102320Y-130256596D02*
X160102320Y-128756596D01*
X160102320Y-128756596D02*
X160673749Y-128756596D01*
X160673749Y-128756596D02*
X160816606Y-128828025D01*
X160816606Y-128828025D02*
X160888035Y-128899453D01*
X160888035Y-128899453D02*
X160959463Y-129042310D01*
X160959463Y-129042310D02*
X160959463Y-129256596D01*
X160959463Y-129256596D02*
X160888035Y-129399453D01*
X160888035Y-129399453D02*
X160816606Y-129470882D01*
X160816606Y-129470882D02*
X160673749Y-129542310D01*
X160673749Y-129542310D02*
X160102320Y-129542310D01*
X162173749Y-130185168D02*
X162030892Y-130256596D01*
X162030892Y-130256596D02*
X161745178Y-130256596D01*
X161745178Y-130256596D02*
X161602320Y-130185168D01*
X161602320Y-130185168D02*
X161530892Y-130042310D01*
X161530892Y-130042310D02*
X161530892Y-129470882D01*
X161530892Y-129470882D02*
X161602320Y-129328025D01*
X161602320Y-129328025D02*
X161745178Y-129256596D01*
X161745178Y-129256596D02*
X162030892Y-129256596D01*
X162030892Y-129256596D02*
X162173749Y-129328025D01*
X162173749Y-129328025D02*
X162245178Y-129470882D01*
X162245178Y-129470882D02*
X162245178Y-129613739D01*
X162245178Y-129613739D02*
X161530892Y-129756596D01*
X162745177Y-129256596D02*
X163102320Y-130256596D01*
X163102320Y-130256596D02*
X163459463Y-129256596D01*
X165102320Y-128899453D02*
X165173748Y-128828025D01*
X165173748Y-128828025D02*
X165316606Y-128756596D01*
X165316606Y-128756596D02*
X165673748Y-128756596D01*
X165673748Y-128756596D02*
X165816606Y-128828025D01*
X165816606Y-128828025D02*
X165888034Y-128899453D01*
X165888034Y-128899453D02*
X165959463Y-129042310D01*
X165959463Y-129042310D02*
X165959463Y-129185168D01*
X165959463Y-129185168D02*
X165888034Y-129399453D01*
X165888034Y-129399453D02*
X165030891Y-130256596D01*
X165030891Y-130256596D02*
X165959463Y-130256596D01*
X166602319Y-130113739D02*
X166673748Y-130185168D01*
X166673748Y-130185168D02*
X166602319Y-130256596D01*
X166602319Y-130256596D02*
X166530891Y-130185168D01*
X166530891Y-130185168D02*
X166602319Y-130113739D01*
X166602319Y-130113739D02*
X166602319Y-130256596D01*
X167602320Y-128756596D02*
X167745177Y-128756596D01*
X167745177Y-128756596D02*
X167888034Y-128828025D01*
X167888034Y-128828025D02*
X167959463Y-128899453D01*
X167959463Y-128899453D02*
X168030891Y-129042310D01*
X168030891Y-129042310D02*
X168102320Y-129328025D01*
X168102320Y-129328025D02*
X168102320Y-129685168D01*
X168102320Y-129685168D02*
X168030891Y-129970882D01*
X168030891Y-129970882D02*
X167959463Y-130113739D01*
X167959463Y-130113739D02*
X167888034Y-130185168D01*
X167888034Y-130185168D02*
X167745177Y-130256596D01*
X167745177Y-130256596D02*
X167602320Y-130256596D01*
X167602320Y-130256596D02*
X167459463Y-130185168D01*
X167459463Y-130185168D02*
X167388034Y-130113739D01*
X167388034Y-130113739D02*
X167316605Y-129970882D01*
X167316605Y-129970882D02*
X167245177Y-129685168D01*
X167245177Y-129685168D02*
X167245177Y-129328025D01*
X167245177Y-129328025D02*
X167316605Y-129042310D01*
X167316605Y-129042310D02*
X167388034Y-128899453D01*
X167388034Y-128899453D02*
X167459463Y-128828025D01*
X167459463Y-128828025D02*
X167602320Y-128756596D01*
X168816605Y-130185168D02*
X168816605Y-130256596D01*
X168816605Y-130256596D02*
X168745176Y-130399453D01*
X168745176Y-130399453D02*
X168673748Y-130470882D01*
X170530891Y-128899453D02*
X170602319Y-128828025D01*
X170602319Y-128828025D02*
X170745177Y-128756596D01*
X170745177Y-128756596D02*
X171102319Y-128756596D01*
X171102319Y-128756596D02*
X171245177Y-128828025D01*
X171245177Y-128828025D02*
X171316605Y-128899453D01*
X171316605Y-128899453D02*
X171388034Y-129042310D01*
X171388034Y-129042310D02*
X171388034Y-129185168D01*
X171388034Y-129185168D02*
X171316605Y-129399453D01*
X171316605Y-129399453D02*
X170459462Y-130256596D01*
X170459462Y-130256596D02*
X171388034Y-130256596D01*
X172316605Y-128756596D02*
X172459462Y-128756596D01*
X172459462Y-128756596D02*
X172602319Y-128828025D01*
X172602319Y-128828025D02*
X172673748Y-128899453D01*
X172673748Y-128899453D02*
X172745176Y-129042310D01*
X172745176Y-129042310D02*
X172816605Y-129328025D01*
X172816605Y-129328025D02*
X172816605Y-129685168D01*
X172816605Y-129685168D02*
X172745176Y-129970882D01*
X172745176Y-129970882D02*
X172673748Y-130113739D01*
X172673748Y-130113739D02*
X172602319Y-130185168D01*
X172602319Y-130185168D02*
X172459462Y-130256596D01*
X172459462Y-130256596D02*
X172316605Y-130256596D01*
X172316605Y-130256596D02*
X172173748Y-130185168D01*
X172173748Y-130185168D02*
X172102319Y-130113739D01*
X172102319Y-130113739D02*
X172030890Y-129970882D01*
X172030890Y-129970882D02*
X171959462Y-129685168D01*
X171959462Y-129685168D02*
X171959462Y-129328025D01*
X171959462Y-129328025D02*
X172030890Y-129042310D01*
X172030890Y-129042310D02*
X172102319Y-128899453D01*
X172102319Y-128899453D02*
X172173748Y-128828025D01*
X172173748Y-128828025D02*
X172316605Y-128756596D01*
X173388033Y-128899453D02*
X173459461Y-128828025D01*
X173459461Y-128828025D02*
X173602319Y-128756596D01*
X173602319Y-128756596D02*
X173959461Y-128756596D01*
X173959461Y-128756596D02*
X174102319Y-128828025D01*
X174102319Y-128828025D02*
X174173747Y-128899453D01*
X174173747Y-128899453D02*
X174245176Y-129042310D01*
X174245176Y-129042310D02*
X174245176Y-129185168D01*
X174245176Y-129185168D02*
X174173747Y-129399453D01*
X174173747Y-129399453D02*
X173316604Y-130256596D01*
X173316604Y-130256596D02*
X174245176Y-130256596D01*
X175530890Y-129256596D02*
X175530890Y-130256596D01*
X175173747Y-128685168D02*
X174816604Y-129756596D01*
X174816604Y-129756596D02*
X175745175Y-129756596D01*
X160102320Y-132671512D02*
X160102320Y-131171512D01*
X160102320Y-131171512D02*
X160673749Y-131171512D01*
X160673749Y-131171512D02*
X160816606Y-131242941D01*
X160816606Y-131242941D02*
X160888035Y-131314369D01*
X160888035Y-131314369D02*
X160959463Y-131457226D01*
X160959463Y-131457226D02*
X160959463Y-131671512D01*
X160959463Y-131671512D02*
X160888035Y-131814369D01*
X160888035Y-131814369D02*
X160816606Y-131885798D01*
X160816606Y-131885798D02*
X160673749Y-131957226D01*
X160673749Y-131957226D02*
X160102320Y-131957226D01*
X162245178Y-132671512D02*
X162245178Y-131885798D01*
X162245178Y-131885798D02*
X162173749Y-131742941D01*
X162173749Y-131742941D02*
X162030892Y-131671512D01*
X162030892Y-131671512D02*
X161745178Y-131671512D01*
X161745178Y-131671512D02*
X161602320Y-131742941D01*
X162245178Y-132600084D02*
X162102320Y-132671512D01*
X162102320Y-132671512D02*
X161745178Y-132671512D01*
X161745178Y-132671512D02*
X161602320Y-132600084D01*
X161602320Y-132600084D02*
X161530892Y-132457226D01*
X161530892Y-132457226D02*
X161530892Y-132314369D01*
X161530892Y-132314369D02*
X161602320Y-132171512D01*
X161602320Y-132171512D02*
X161745178Y-132100084D01*
X161745178Y-132100084D02*
X162102320Y-132100084D01*
X162102320Y-132100084D02*
X162245178Y-132028655D01*
X162745178Y-131671512D02*
X163316606Y-131671512D01*
X162959463Y-131171512D02*
X162959463Y-132457226D01*
X162959463Y-132457226D02*
X163030892Y-132600084D01*
X163030892Y-132600084D02*
X163173749Y-132671512D01*
X163173749Y-132671512D02*
X163316606Y-132671512D01*
X163816606Y-132671512D02*
X163816606Y-131671512D01*
X163816606Y-131957226D02*
X163888035Y-131814369D01*
X163888035Y-131814369D02*
X163959464Y-131742941D01*
X163959464Y-131742941D02*
X164102321Y-131671512D01*
X164102321Y-131671512D02*
X164245178Y-131671512D01*
X164745177Y-132671512D02*
X164745177Y-131671512D01*
X164745177Y-131171512D02*
X164673749Y-131242941D01*
X164673749Y-131242941D02*
X164745177Y-131314369D01*
X164745177Y-131314369D02*
X164816606Y-131242941D01*
X164816606Y-131242941D02*
X164745177Y-131171512D01*
X164745177Y-131171512D02*
X164745177Y-131314369D01*
X166102321Y-132600084D02*
X165959463Y-132671512D01*
X165959463Y-132671512D02*
X165673749Y-132671512D01*
X165673749Y-132671512D02*
X165530892Y-132600084D01*
X165530892Y-132600084D02*
X165459463Y-132528655D01*
X165459463Y-132528655D02*
X165388035Y-132385798D01*
X165388035Y-132385798D02*
X165388035Y-131957226D01*
X165388035Y-131957226D02*
X165459463Y-131814369D01*
X165459463Y-131814369D02*
X165530892Y-131742941D01*
X165530892Y-131742941D02*
X165673749Y-131671512D01*
X165673749Y-131671512D02*
X165959463Y-131671512D01*
X165959463Y-131671512D02*
X166102321Y-131742941D01*
X166745177Y-132671512D02*
X166745177Y-131171512D01*
X166888035Y-132100084D02*
X167316606Y-132671512D01*
X167316606Y-131671512D02*
X166745177Y-132242941D01*
X169816606Y-132671512D02*
X169102320Y-132671512D01*
X169102320Y-132671512D02*
X169102320Y-131171512D01*
X170888035Y-132600084D02*
X170745178Y-132671512D01*
X170745178Y-132671512D02*
X170459464Y-132671512D01*
X170459464Y-132671512D02*
X170316606Y-132600084D01*
X170316606Y-132600084D02*
X170245178Y-132457226D01*
X170245178Y-132457226D02*
X170245178Y-131885798D01*
X170245178Y-131885798D02*
X170316606Y-131742941D01*
X170316606Y-131742941D02*
X170459464Y-131671512D01*
X170459464Y-131671512D02*
X170745178Y-131671512D01*
X170745178Y-131671512D02*
X170888035Y-131742941D01*
X170888035Y-131742941D02*
X170959464Y-131885798D01*
X170959464Y-131885798D02*
X170959464Y-132028655D01*
X170959464Y-132028655D02*
X170245178Y-132171512D01*
X171602320Y-132671512D02*
X171602320Y-131671512D01*
X171602320Y-131171512D02*
X171530892Y-131242941D01*
X171530892Y-131242941D02*
X171602320Y-131314369D01*
X171602320Y-131314369D02*
X171673749Y-131242941D01*
X171673749Y-131242941D02*
X171602320Y-131171512D01*
X171602320Y-131171512D02*
X171602320Y-131314369D01*
X172245178Y-132600084D02*
X172388035Y-132671512D01*
X172388035Y-132671512D02*
X172673749Y-132671512D01*
X172673749Y-132671512D02*
X172816606Y-132600084D01*
X172816606Y-132600084D02*
X172888035Y-132457226D01*
X172888035Y-132457226D02*
X172888035Y-132385798D01*
X172888035Y-132385798D02*
X172816606Y-132242941D01*
X172816606Y-132242941D02*
X172673749Y-132171512D01*
X172673749Y-132171512D02*
X172459464Y-132171512D01*
X172459464Y-132171512D02*
X172316606Y-132100084D01*
X172316606Y-132100084D02*
X172245178Y-131957226D01*
X172245178Y-131957226D02*
X172245178Y-131885798D01*
X172245178Y-131885798D02*
X172316606Y-131742941D01*
X172316606Y-131742941D02*
X172459464Y-131671512D01*
X172459464Y-131671512D02*
X172673749Y-131671512D01*
X172673749Y-131671512D02*
X172816606Y-131742941D01*
X174102321Y-132600084D02*
X173959464Y-132671512D01*
X173959464Y-132671512D02*
X173673750Y-132671512D01*
X173673750Y-132671512D02*
X173530892Y-132600084D01*
X173530892Y-132600084D02*
X173459464Y-132457226D01*
X173459464Y-132457226D02*
X173459464Y-131885798D01*
X173459464Y-131885798D02*
X173530892Y-131742941D01*
X173530892Y-131742941D02*
X173673750Y-131671512D01*
X173673750Y-131671512D02*
X173959464Y-131671512D01*
X173959464Y-131671512D02*
X174102321Y-131742941D01*
X174102321Y-131742941D02*
X174173750Y-131885798D01*
X174173750Y-131885798D02*
X174173750Y-132028655D01*
X174173750Y-132028655D02*
X173459464Y-132171512D01*
X174816606Y-132671512D02*
X174816606Y-131671512D01*
X174816606Y-131957226D02*
X174888035Y-131814369D01*
X174888035Y-131814369D02*
X174959464Y-131742941D01*
X174959464Y-131742941D02*
X175102321Y-131671512D01*
X175102321Y-131671512D02*
X175245178Y-131671512D01*
X160102320Y-135086428D02*
X160102320Y-133586428D01*
X160102320Y-133586428D02*
X160673749Y-133586428D01*
X160673749Y-133586428D02*
X160816606Y-133657857D01*
X160816606Y-133657857D02*
X160888035Y-133729285D01*
X160888035Y-133729285D02*
X160959463Y-133872142D01*
X160959463Y-133872142D02*
X160959463Y-134086428D01*
X160959463Y-134086428D02*
X160888035Y-134229285D01*
X160888035Y-134229285D02*
X160816606Y-134300714D01*
X160816606Y-134300714D02*
X160673749Y-134372142D01*
X160673749Y-134372142D02*
X160102320Y-134372142D01*
X162245178Y-135086428D02*
X162245178Y-134300714D01*
X162245178Y-134300714D02*
X162173749Y-134157857D01*
X162173749Y-134157857D02*
X162030892Y-134086428D01*
X162030892Y-134086428D02*
X161745178Y-134086428D01*
X161745178Y-134086428D02*
X161602320Y-134157857D01*
X162245178Y-135015000D02*
X162102320Y-135086428D01*
X162102320Y-135086428D02*
X161745178Y-135086428D01*
X161745178Y-135086428D02*
X161602320Y-135015000D01*
X161602320Y-135015000D02*
X161530892Y-134872142D01*
X161530892Y-134872142D02*
X161530892Y-134729285D01*
X161530892Y-134729285D02*
X161602320Y-134586428D01*
X161602320Y-134586428D02*
X161745178Y-134515000D01*
X161745178Y-134515000D02*
X162102320Y-134515000D01*
X162102320Y-134515000D02*
X162245178Y-134443571D01*
X162745178Y-134086428D02*
X163316606Y-134086428D01*
X162959463Y-133586428D02*
X162959463Y-134872142D01*
X162959463Y-134872142D02*
X163030892Y-135015000D01*
X163030892Y-135015000D02*
X163173749Y-135086428D01*
X163173749Y-135086428D02*
X163316606Y-135086428D01*
X163816606Y-135086428D02*
X163816606Y-134086428D01*
X163816606Y-134372142D02*
X163888035Y-134229285D01*
X163888035Y-134229285D02*
X163959464Y-134157857D01*
X163959464Y-134157857D02*
X164102321Y-134086428D01*
X164102321Y-134086428D02*
X164245178Y-134086428D01*
X164959463Y-135086428D02*
X164816606Y-135015000D01*
X164816606Y-135015000D02*
X164745177Y-134943571D01*
X164745177Y-134943571D02*
X164673749Y-134800714D01*
X164673749Y-134800714D02*
X164673749Y-134372142D01*
X164673749Y-134372142D02*
X164745177Y-134229285D01*
X164745177Y-134229285D02*
X164816606Y-134157857D01*
X164816606Y-134157857D02*
X164959463Y-134086428D01*
X164959463Y-134086428D02*
X165173749Y-134086428D01*
X165173749Y-134086428D02*
X165316606Y-134157857D01*
X165316606Y-134157857D02*
X165388035Y-134229285D01*
X165388035Y-134229285D02*
X165459463Y-134372142D01*
X165459463Y-134372142D02*
X165459463Y-134800714D01*
X165459463Y-134800714D02*
X165388035Y-134943571D01*
X165388035Y-134943571D02*
X165316606Y-135015000D01*
X165316606Y-135015000D02*
X165173749Y-135086428D01*
X165173749Y-135086428D02*
X164959463Y-135086428D01*
X166102320Y-134086428D02*
X166102320Y-135086428D01*
X166102320Y-134229285D02*
X166173749Y-134157857D01*
X166173749Y-134157857D02*
X166316606Y-134086428D01*
X166316606Y-134086428D02*
X166530892Y-134086428D01*
X166530892Y-134086428D02*
X166673749Y-134157857D01*
X166673749Y-134157857D02*
X166745178Y-134300714D01*
X166745178Y-134300714D02*
X166745178Y-135086428D01*
X167459463Y-135086428D02*
X167459463Y-134086428D01*
X167459463Y-133586428D02*
X167388035Y-133657857D01*
X167388035Y-133657857D02*
X167459463Y-133729285D01*
X167459463Y-133729285D02*
X167530892Y-133657857D01*
X167530892Y-133657857D02*
X167459463Y-133586428D01*
X167459463Y-133586428D02*
X167459463Y-133729285D01*
X168816607Y-135015000D02*
X168673749Y-135086428D01*
X168673749Y-135086428D02*
X168388035Y-135086428D01*
X168388035Y-135086428D02*
X168245178Y-135015000D01*
X168245178Y-135015000D02*
X168173749Y-134943571D01*
X168173749Y-134943571D02*
X168102321Y-134800714D01*
X168102321Y-134800714D02*
X168102321Y-134372142D01*
X168102321Y-134372142D02*
X168173749Y-134229285D01*
X168173749Y-134229285D02*
X168245178Y-134157857D01*
X168245178Y-134157857D02*
X168388035Y-134086428D01*
X168388035Y-134086428D02*
X168673749Y-134086428D01*
X168673749Y-134086428D02*
X168816607Y-134157857D01*
X169388035Y-135015000D02*
X169530892Y-135086428D01*
X169530892Y-135086428D02*
X169816606Y-135086428D01*
X169816606Y-135086428D02*
X169959463Y-135015000D01*
X169959463Y-135015000D02*
X170030892Y-134872142D01*
X170030892Y-134872142D02*
X170030892Y-134800714D01*
X170030892Y-134800714D02*
X169959463Y-134657857D01*
X169959463Y-134657857D02*
X169816606Y-134586428D01*
X169816606Y-134586428D02*
X169602321Y-134586428D01*
X169602321Y-134586428D02*
X169459463Y-134515000D01*
X169459463Y-134515000D02*
X169388035Y-134372142D01*
X169388035Y-134372142D02*
X169388035Y-134300714D01*
X169388035Y-134300714D02*
X169459463Y-134157857D01*
X169459463Y-134157857D02*
X169602321Y-134086428D01*
X169602321Y-134086428D02*
X169816606Y-134086428D01*
X169816606Y-134086428D02*
X169959463Y-134157857D01*
X170673749Y-134943571D02*
X170745178Y-135015000D01*
X170745178Y-135015000D02*
X170673749Y-135086428D01*
X170673749Y-135086428D02*
X170602321Y-135015000D01*
X170602321Y-135015000D02*
X170673749Y-134943571D01*
X170673749Y-134943571D02*
X170673749Y-135086428D01*
X171602321Y-135086428D02*
X171459464Y-135015000D01*
X171459464Y-135015000D02*
X171388035Y-134943571D01*
X171388035Y-134943571D02*
X171316607Y-134800714D01*
X171316607Y-134800714D02*
X171316607Y-134372142D01*
X171316607Y-134372142D02*
X171388035Y-134229285D01*
X171388035Y-134229285D02*
X171459464Y-134157857D01*
X171459464Y-134157857D02*
X171602321Y-134086428D01*
X171602321Y-134086428D02*
X171816607Y-134086428D01*
X171816607Y-134086428D02*
X171959464Y-134157857D01*
X171959464Y-134157857D02*
X172030893Y-134229285D01*
X172030893Y-134229285D02*
X172102321Y-134372142D01*
X172102321Y-134372142D02*
X172102321Y-134800714D01*
X172102321Y-134800714D02*
X172030893Y-134943571D01*
X172030893Y-134943571D02*
X171959464Y-135015000D01*
X171959464Y-135015000D02*
X171816607Y-135086428D01*
X171816607Y-135086428D02*
X171602321Y-135086428D01*
X172745178Y-135086428D02*
X172745178Y-134086428D01*
X172745178Y-134372142D02*
X172816607Y-134229285D01*
X172816607Y-134229285D02*
X172888036Y-134157857D01*
X172888036Y-134157857D02*
X173030893Y-134086428D01*
X173030893Y-134086428D02*
X173173750Y-134086428D01*
X174316607Y-134086428D02*
X174316607Y-135300714D01*
X174316607Y-135300714D02*
X174245178Y-135443571D01*
X174245178Y-135443571D02*
X174173749Y-135515000D01*
X174173749Y-135515000D02*
X174030892Y-135586428D01*
X174030892Y-135586428D02*
X173816607Y-135586428D01*
X173816607Y-135586428D02*
X173673749Y-135515000D01*
X174316607Y-135015000D02*
X174173749Y-135086428D01*
X174173749Y-135086428D02*
X173888035Y-135086428D01*
X173888035Y-135086428D02*
X173745178Y-135015000D01*
X173745178Y-135015000D02*
X173673749Y-134943571D01*
X173673749Y-134943571D02*
X173602321Y-134800714D01*
X173602321Y-134800714D02*
X173602321Y-134372142D01*
X173602321Y-134372142D02*
X173673749Y-134229285D01*
X173673749Y-134229285D02*
X173745178Y-134157857D01*
X173745178Y-134157857D02*
X173888035Y-134086428D01*
X173888035Y-134086428D02*
X174173749Y-134086428D01*
X174173749Y-134086428D02*
X174316607Y-134157857D01*
D10*
X205943200Y-130556000D02*
X213563200Y-130556000D01*
X213563200Y-136804400D01*
X205943200Y-136804400D01*
X205943200Y-130556000D01*
X208483200Y-136804400D02*
X208483200Y-130556000D01*
X211024000Y-130315000D02*
X211023200Y-136804400D01*
D12*
X211467030Y-130981939D02*
X211394649Y-131153368D01*
X211394649Y-131153368D02*
X211394649Y-131439082D01*
X211394649Y-131439082D02*
X211467030Y-131553368D01*
X211467030Y-131553368D02*
X211539410Y-131610510D01*
X211539410Y-131610510D02*
X211684172Y-131667653D01*
X211684172Y-131667653D02*
X211828934Y-131667653D01*
X211828934Y-131667653D02*
X211973696Y-131610510D01*
X211973696Y-131610510D02*
X212046077Y-131553368D01*
X212046077Y-131553368D02*
X212118458Y-131439082D01*
X212118458Y-131439082D02*
X212190839Y-131210510D01*
X212190839Y-131210510D02*
X212263220Y-131096225D01*
X212263220Y-131096225D02*
X212335601Y-131039082D01*
X212335601Y-131039082D02*
X212480363Y-130981939D01*
X212480363Y-130981939D02*
X212625125Y-130981939D01*
X212625125Y-130981939D02*
X212769887Y-131039082D01*
X212769887Y-131039082D02*
X212842268Y-131096225D01*
X212842268Y-131096225D02*
X212914649Y-131210510D01*
X212914649Y-131210510D02*
X212914649Y-131496225D01*
X212914649Y-131496225D02*
X212842268Y-131667653D01*
X212914649Y-132067653D02*
X211394649Y-132353367D01*
X211394649Y-132353367D02*
X212480363Y-132581939D01*
X212480363Y-132581939D02*
X211394649Y-132810510D01*
X211394649Y-132810510D02*
X212914649Y-133096225D01*
X211394649Y-133553368D02*
X212914649Y-133553368D01*
X212914649Y-133553368D02*
X212914649Y-133839082D01*
X212914649Y-133839082D02*
X212842268Y-134010511D01*
X212842268Y-134010511D02*
X212697506Y-134124796D01*
X212697506Y-134124796D02*
X212552744Y-134181939D01*
X212552744Y-134181939D02*
X212263220Y-134239082D01*
X212263220Y-134239082D02*
X212046077Y-134239082D01*
X212046077Y-134239082D02*
X211756553Y-134181939D01*
X211756553Y-134181939D02*
X211611791Y-134124796D01*
X211611791Y-134124796D02*
X211467030Y-134010511D01*
X211467030Y-134010511D02*
X211394649Y-133839082D01*
X211394649Y-133839082D02*
X211394649Y-133553368D01*
X211394649Y-134753368D02*
X212914649Y-134753368D01*
X212914649Y-135553368D02*
X212914649Y-135781940D01*
X212914649Y-135781940D02*
X212842268Y-135896225D01*
X212842268Y-135896225D02*
X212697506Y-136010511D01*
X212697506Y-136010511D02*
X212407982Y-136067654D01*
X212407982Y-136067654D02*
X211901315Y-136067654D01*
X211901315Y-136067654D02*
X211611791Y-136010511D01*
X211611791Y-136010511D02*
X211467030Y-135896225D01*
X211467030Y-135896225D02*
X211394649Y-135781940D01*
X211394649Y-135781940D02*
X211394649Y-135553368D01*
X211394649Y-135553368D02*
X211467030Y-135439083D01*
X211467030Y-135439083D02*
X211611791Y-135324797D01*
X211611791Y-135324797D02*
X211901315Y-135267654D01*
X211901315Y-135267654D02*
X212407982Y-135267654D01*
X212407982Y-135267654D02*
X212697506Y-135324797D01*
X212697506Y-135324797D02*
X212842268Y-135439083D01*
X212842268Y-135439083D02*
X212914649Y-135553368D01*
X210395153Y-131667653D02*
X210467534Y-131553368D01*
X210467534Y-131553368D02*
X210467534Y-131381939D01*
X210467534Y-131381939D02*
X210395153Y-131210510D01*
X210395153Y-131210510D02*
X210250391Y-131096225D01*
X210250391Y-131096225D02*
X210105629Y-131039082D01*
X210105629Y-131039082D02*
X209816105Y-130981939D01*
X209816105Y-130981939D02*
X209598962Y-130981939D01*
X209598962Y-130981939D02*
X209309438Y-131039082D01*
X209309438Y-131039082D02*
X209164676Y-131096225D01*
X209164676Y-131096225D02*
X209019915Y-131210510D01*
X209019915Y-131210510D02*
X208947534Y-131381939D01*
X208947534Y-131381939D02*
X208947534Y-131496225D01*
X208947534Y-131496225D02*
X209019915Y-131667653D01*
X209019915Y-131667653D02*
X209092295Y-131724796D01*
X209092295Y-131724796D02*
X209598962Y-131724796D01*
X209598962Y-131724796D02*
X209598962Y-131496225D01*
X208947534Y-132239082D02*
X210467534Y-132239082D01*
X210467534Y-132239082D02*
X208947534Y-132924796D01*
X208947534Y-132924796D02*
X210467534Y-132924796D01*
X208947534Y-133496225D02*
X210467534Y-133496225D01*
X210467534Y-133496225D02*
X210467534Y-133781939D01*
X210467534Y-133781939D02*
X210395153Y-133953368D01*
X210395153Y-133953368D02*
X210250391Y-134067653D01*
X210250391Y-134067653D02*
X210105629Y-134124796D01*
X210105629Y-134124796D02*
X209816105Y-134181939D01*
X209816105Y-134181939D02*
X209598962Y-134181939D01*
X209598962Y-134181939D02*
X209309438Y-134124796D01*
X209309438Y-134124796D02*
X209164676Y-134067653D01*
X209164676Y-134067653D02*
X209019915Y-133953368D01*
X209019915Y-133953368D02*
X208947534Y-133781939D01*
X208947534Y-133781939D02*
X208947534Y-133496225D01*
X206572800Y-130981939D02*
X206500419Y-131153368D01*
X206500419Y-131153368D02*
X206500419Y-131439082D01*
X206500419Y-131439082D02*
X206572800Y-131553368D01*
X206572800Y-131553368D02*
X206645180Y-131610510D01*
X206645180Y-131610510D02*
X206789942Y-131667653D01*
X206789942Y-131667653D02*
X206934704Y-131667653D01*
X206934704Y-131667653D02*
X207079466Y-131610510D01*
X207079466Y-131610510D02*
X207151847Y-131553368D01*
X207151847Y-131553368D02*
X207224228Y-131439082D01*
X207224228Y-131439082D02*
X207296609Y-131210510D01*
X207296609Y-131210510D02*
X207368990Y-131096225D01*
X207368990Y-131096225D02*
X207441371Y-131039082D01*
X207441371Y-131039082D02*
X207586133Y-130981939D01*
X207586133Y-130981939D02*
X207730895Y-130981939D01*
X207730895Y-130981939D02*
X207875657Y-131039082D01*
X207875657Y-131039082D02*
X207948038Y-131096225D01*
X207948038Y-131096225D02*
X208020419Y-131210510D01*
X208020419Y-131210510D02*
X208020419Y-131496225D01*
X208020419Y-131496225D02*
X207948038Y-131667653D01*
X208020419Y-132067653D02*
X206500419Y-132353367D01*
X206500419Y-132353367D02*
X207586133Y-132581939D01*
X207586133Y-132581939D02*
X206500419Y-132810510D01*
X206500419Y-132810510D02*
X208020419Y-133096225D01*
X206645180Y-134239082D02*
X206572800Y-134181939D01*
X206572800Y-134181939D02*
X206500419Y-134010511D01*
X206500419Y-134010511D02*
X206500419Y-133896225D01*
X206500419Y-133896225D02*
X206572800Y-133724796D01*
X206572800Y-133724796D02*
X206717561Y-133610511D01*
X206717561Y-133610511D02*
X206862323Y-133553368D01*
X206862323Y-133553368D02*
X207151847Y-133496225D01*
X207151847Y-133496225D02*
X207368990Y-133496225D01*
X207368990Y-133496225D02*
X207658514Y-133553368D01*
X207658514Y-133553368D02*
X207803276Y-133610511D01*
X207803276Y-133610511D02*
X207948038Y-133724796D01*
X207948038Y-133724796D02*
X208020419Y-133896225D01*
X208020419Y-133896225D02*
X208020419Y-134010511D01*
X208020419Y-134010511D02*
X207948038Y-134181939D01*
X207948038Y-134181939D02*
X207875657Y-134239082D01*
X206500419Y-135324796D02*
X206500419Y-134753368D01*
X206500419Y-134753368D02*
X208020419Y-134753368D01*
X206500419Y-135724797D02*
X208020419Y-135724797D01*
X206500419Y-136410511D02*
X207368990Y-135896225D01*
X208020419Y-136410511D02*
X207151847Y-135724797D01*
X197843322Y-123050346D02*
X196303322Y-123450346D01*
X196303322Y-123450346D02*
X197843322Y-123850346D01*
X197109989Y-124650346D02*
X197036656Y-124821774D01*
X197036656Y-124821774D02*
X196963322Y-124878917D01*
X196963322Y-124878917D02*
X196816656Y-124936060D01*
X196816656Y-124936060D02*
X196596656Y-124936060D01*
X196596656Y-124936060D02*
X196449989Y-124878917D01*
X196449989Y-124878917D02*
X196376656Y-124821774D01*
X196376656Y-124821774D02*
X196303322Y-124707489D01*
X196303322Y-124707489D02*
X196303322Y-124250346D01*
X196303322Y-124250346D02*
X197843322Y-124250346D01*
X197843322Y-124250346D02*
X197843322Y-124650346D01*
X197843322Y-124650346D02*
X197769989Y-124764632D01*
X197769989Y-124764632D02*
X197696656Y-124821774D01*
X197696656Y-124821774D02*
X197549989Y-124878917D01*
X197549989Y-124878917D02*
X197403322Y-124878917D01*
X197403322Y-124878917D02*
X197256656Y-124821774D01*
X197256656Y-124821774D02*
X197183322Y-124764632D01*
X197183322Y-124764632D02*
X197109989Y-124650346D01*
X197109989Y-124650346D02*
X197109989Y-124250346D01*
X197843322Y-125450346D02*
X196596656Y-125450346D01*
X196596656Y-125450346D02*
X196449989Y-125507489D01*
X196449989Y-125507489D02*
X196376656Y-125564632D01*
X196376656Y-125564632D02*
X196303322Y-125678917D01*
X196303322Y-125678917D02*
X196303322Y-125907489D01*
X196303322Y-125907489D02*
X196376656Y-126021774D01*
X196376656Y-126021774D02*
X196449989Y-126078917D01*
X196449989Y-126078917D02*
X196596656Y-126136060D01*
X196596656Y-126136060D02*
X197843322Y-126136060D01*
X196376656Y-126650346D02*
X196303322Y-126821775D01*
X196303322Y-126821775D02*
X196303322Y-127107489D01*
X196303322Y-127107489D02*
X196376656Y-127221775D01*
X196376656Y-127221775D02*
X196449989Y-127278917D01*
X196449989Y-127278917D02*
X196596656Y-127336060D01*
X196596656Y-127336060D02*
X196743322Y-127336060D01*
X196743322Y-127336060D02*
X196889989Y-127278917D01*
X196889989Y-127278917D02*
X196963322Y-127221775D01*
X196963322Y-127221775D02*
X197036656Y-127107489D01*
X197036656Y-127107489D02*
X197109989Y-126878917D01*
X197109989Y-126878917D02*
X197183322Y-126764632D01*
X197183322Y-126764632D02*
X197256656Y-126707489D01*
X197256656Y-126707489D02*
X197403322Y-126650346D01*
X197403322Y-126650346D02*
X197549989Y-126650346D01*
X197549989Y-126650346D02*
X197696656Y-126707489D01*
X197696656Y-126707489D02*
X197769989Y-126764632D01*
X197769989Y-126764632D02*
X197843322Y-126878917D01*
X197843322Y-126878917D02*
X197843322Y-127164632D01*
X197843322Y-127164632D02*
X197769989Y-127336060D01*
X195364008Y-123336061D02*
X193824008Y-123736061D01*
X193824008Y-123736061D02*
X195364008Y-124136061D01*
X193897342Y-124478918D02*
X193824008Y-124650347D01*
X193824008Y-124650347D02*
X193824008Y-124936061D01*
X193824008Y-124936061D02*
X193897342Y-125050347D01*
X193897342Y-125050347D02*
X193970675Y-125107489D01*
X193970675Y-125107489D02*
X194117342Y-125164632D01*
X194117342Y-125164632D02*
X194264008Y-125164632D01*
X194264008Y-125164632D02*
X194410675Y-125107489D01*
X194410675Y-125107489D02*
X194484008Y-125050347D01*
X194484008Y-125050347D02*
X194557342Y-124936061D01*
X194557342Y-124936061D02*
X194630675Y-124707489D01*
X194630675Y-124707489D02*
X194704008Y-124593204D01*
X194704008Y-124593204D02*
X194777342Y-124536061D01*
X194777342Y-124536061D02*
X194924008Y-124478918D01*
X194924008Y-124478918D02*
X195070675Y-124478918D01*
X195070675Y-124478918D02*
X195217342Y-124536061D01*
X195217342Y-124536061D02*
X195290675Y-124593204D01*
X195290675Y-124593204D02*
X195364008Y-124707489D01*
X195364008Y-124707489D02*
X195364008Y-124993204D01*
X195364008Y-124993204D02*
X195290675Y-125164632D01*
X194557342Y-125907489D02*
X193824008Y-125907489D01*
X195364008Y-125507489D02*
X194557342Y-125907489D01*
X194557342Y-125907489D02*
X195364008Y-126307489D01*
X193897342Y-126650346D02*
X193824008Y-126821775D01*
X193824008Y-126821775D02*
X193824008Y-127107489D01*
X193824008Y-127107489D02*
X193897342Y-127221775D01*
X193897342Y-127221775D02*
X193970675Y-127278917D01*
X193970675Y-127278917D02*
X194117342Y-127336060D01*
X194117342Y-127336060D02*
X194264008Y-127336060D01*
X194264008Y-127336060D02*
X194410675Y-127278917D01*
X194410675Y-127278917D02*
X194484008Y-127221775D01*
X194484008Y-127221775D02*
X194557342Y-127107489D01*
X194557342Y-127107489D02*
X194630675Y-126878917D01*
X194630675Y-126878917D02*
X194704008Y-126764632D01*
X194704008Y-126764632D02*
X194777342Y-126707489D01*
X194777342Y-126707489D02*
X194924008Y-126650346D01*
X194924008Y-126650346D02*
X195070675Y-126650346D01*
X195070675Y-126650346D02*
X195217342Y-126707489D01*
X195217342Y-126707489D02*
X195290675Y-126764632D01*
X195290675Y-126764632D02*
X195364008Y-126878917D01*
X195364008Y-126878917D02*
X195364008Y-127164632D01*
X195364008Y-127164632D02*
X195290675Y-127336060D01*
X192884694Y-124421775D02*
X192884694Y-125164632D01*
X192884694Y-125164632D02*
X192298028Y-124764632D01*
X192298028Y-124764632D02*
X192298028Y-124936061D01*
X192298028Y-124936061D02*
X192224694Y-125050347D01*
X192224694Y-125050347D02*
X192151361Y-125107489D01*
X192151361Y-125107489D02*
X192004694Y-125164632D01*
X192004694Y-125164632D02*
X191638028Y-125164632D01*
X191638028Y-125164632D02*
X191491361Y-125107489D01*
X191491361Y-125107489D02*
X191418028Y-125050347D01*
X191418028Y-125050347D02*
X191344694Y-124936061D01*
X191344694Y-124936061D02*
X191344694Y-124593204D01*
X191344694Y-124593204D02*
X191418028Y-124478918D01*
X191418028Y-124478918D02*
X191491361Y-124421775D01*
X192884694Y-125507489D02*
X191344694Y-125907489D01*
X191344694Y-125907489D02*
X192884694Y-126307489D01*
X192884694Y-126593203D02*
X192884694Y-127336060D01*
X192884694Y-127336060D02*
X192298028Y-126936060D01*
X192298028Y-126936060D02*
X192298028Y-127107489D01*
X192298028Y-127107489D02*
X192224694Y-127221775D01*
X192224694Y-127221775D02*
X192151361Y-127278917D01*
X192151361Y-127278917D02*
X192004694Y-127336060D01*
X192004694Y-127336060D02*
X191638028Y-127336060D01*
X191638028Y-127336060D02*
X191491361Y-127278917D01*
X191491361Y-127278917D02*
X191418028Y-127221775D01*
X191418028Y-127221775D02*
X191344694Y-127107489D01*
X191344694Y-127107489D02*
X191344694Y-126764632D01*
X191344694Y-126764632D02*
X191418028Y-126650346D01*
X191418028Y-126650346D02*
X191491361Y-126593203D01*
X190332047Y-124821774D02*
X190405380Y-124707489D01*
X190405380Y-124707489D02*
X190405380Y-124536060D01*
X190405380Y-124536060D02*
X190332047Y-124364631D01*
X190332047Y-124364631D02*
X190185380Y-124250346D01*
X190185380Y-124250346D02*
X190038714Y-124193203D01*
X190038714Y-124193203D02*
X189745380Y-124136060D01*
X189745380Y-124136060D02*
X189525380Y-124136060D01*
X189525380Y-124136060D02*
X189232047Y-124193203D01*
X189232047Y-124193203D02*
X189085380Y-124250346D01*
X189085380Y-124250346D02*
X188938714Y-124364631D01*
X188938714Y-124364631D02*
X188865380Y-124536060D01*
X188865380Y-124536060D02*
X188865380Y-124650346D01*
X188865380Y-124650346D02*
X188938714Y-124821774D01*
X188938714Y-124821774D02*
X189012047Y-124878917D01*
X189012047Y-124878917D02*
X189525380Y-124878917D01*
X189525380Y-124878917D02*
X189525380Y-124650346D01*
X188865380Y-125393203D02*
X190405380Y-125393203D01*
X190405380Y-125393203D02*
X188865380Y-126078917D01*
X188865380Y-126078917D02*
X190405380Y-126078917D01*
X188865380Y-126650346D02*
X190405380Y-126650346D01*
X190405380Y-126650346D02*
X190405380Y-126936060D01*
X190405380Y-126936060D02*
X190332047Y-127107489D01*
X190332047Y-127107489D02*
X190185380Y-127221774D01*
X190185380Y-127221774D02*
X190038714Y-127278917D01*
X190038714Y-127278917D02*
X189745380Y-127336060D01*
X189745380Y-127336060D02*
X189525380Y-127336060D01*
X189525380Y-127336060D02*
X189232047Y-127278917D01*
X189232047Y-127278917D02*
X189085380Y-127221774D01*
X189085380Y-127221774D02*
X188938714Y-127107489D01*
X188938714Y-127107489D02*
X188865380Y-126936060D01*
X188865380Y-126936060D02*
X188865380Y-126650346D01*
X187852733Y-124821774D02*
X187926066Y-124707489D01*
X187926066Y-124707489D02*
X187926066Y-124536060D01*
X187926066Y-124536060D02*
X187852733Y-124364631D01*
X187852733Y-124364631D02*
X187706066Y-124250346D01*
X187706066Y-124250346D02*
X187559400Y-124193203D01*
X187559400Y-124193203D02*
X187266066Y-124136060D01*
X187266066Y-124136060D02*
X187046066Y-124136060D01*
X187046066Y-124136060D02*
X186752733Y-124193203D01*
X186752733Y-124193203D02*
X186606066Y-124250346D01*
X186606066Y-124250346D02*
X186459400Y-124364631D01*
X186459400Y-124364631D02*
X186386066Y-124536060D01*
X186386066Y-124536060D02*
X186386066Y-124650346D01*
X186386066Y-124650346D02*
X186459400Y-124821774D01*
X186459400Y-124821774D02*
X186532733Y-124878917D01*
X186532733Y-124878917D02*
X187046066Y-124878917D01*
X187046066Y-124878917D02*
X187046066Y-124650346D01*
X186386066Y-125393203D02*
X187926066Y-125393203D01*
X187926066Y-125393203D02*
X186386066Y-126078917D01*
X186386066Y-126078917D02*
X187926066Y-126078917D01*
X186386066Y-126650346D02*
X187926066Y-126650346D01*
X187926066Y-126650346D02*
X187926066Y-126936060D01*
X187926066Y-126936060D02*
X187852733Y-127107489D01*
X187852733Y-127107489D02*
X187706066Y-127221774D01*
X187706066Y-127221774D02*
X187559400Y-127278917D01*
X187559400Y-127278917D02*
X187266066Y-127336060D01*
X187266066Y-127336060D02*
X187046066Y-127336060D01*
X187046066Y-127336060D02*
X186752733Y-127278917D01*
X186752733Y-127278917D02*
X186606066Y-127221774D01*
X186606066Y-127221774D02*
X186459400Y-127107489D01*
X186459400Y-127107489D02*
X186386066Y-126936060D01*
X186386066Y-126936060D02*
X186386066Y-126650346D01*
D10*
X188026874Y-81726104D02*
X188026874Y-83726104D01*
X188026874Y-81821342D02*
X188217350Y-81726104D01*
X188217350Y-81726104D02*
X188598303Y-81726104D01*
X188598303Y-81726104D02*
X188788779Y-81821342D01*
X188788779Y-81821342D02*
X188884017Y-81916580D01*
X188884017Y-81916580D02*
X188979255Y-82107057D01*
X188979255Y-82107057D02*
X188979255Y-82678485D01*
X188979255Y-82678485D02*
X188884017Y-82868961D01*
X188884017Y-82868961D02*
X188788779Y-82964200D01*
X188788779Y-82964200D02*
X188598303Y-83059438D01*
X188598303Y-83059438D02*
X188217350Y-83059438D01*
X188217350Y-83059438D02*
X188026874Y-82964200D01*
X190122112Y-83059438D02*
X189931636Y-82964200D01*
X189931636Y-82964200D02*
X189836398Y-82868961D01*
X189836398Y-82868961D02*
X189741160Y-82678485D01*
X189741160Y-82678485D02*
X189741160Y-82107057D01*
X189741160Y-82107057D02*
X189836398Y-81916580D01*
X189836398Y-81916580D02*
X189931636Y-81821342D01*
X189931636Y-81821342D02*
X190122112Y-81726104D01*
X190122112Y-81726104D02*
X190407827Y-81726104D01*
X190407827Y-81726104D02*
X190598303Y-81821342D01*
X190598303Y-81821342D02*
X190693541Y-81916580D01*
X190693541Y-81916580D02*
X190788779Y-82107057D01*
X190788779Y-82107057D02*
X190788779Y-82678485D01*
X190788779Y-82678485D02*
X190693541Y-82868961D01*
X190693541Y-82868961D02*
X190598303Y-82964200D01*
X190598303Y-82964200D02*
X190407827Y-83059438D01*
X190407827Y-83059438D02*
X190122112Y-83059438D01*
X191455446Y-81726104D02*
X191836398Y-83059438D01*
X191836398Y-83059438D02*
X192217351Y-82107057D01*
X192217351Y-82107057D02*
X192598303Y-83059438D01*
X192598303Y-83059438D02*
X192979255Y-81726104D01*
X194503065Y-82964200D02*
X194312589Y-83059438D01*
X194312589Y-83059438D02*
X193931636Y-83059438D01*
X193931636Y-83059438D02*
X193741160Y-82964200D01*
X193741160Y-82964200D02*
X193645922Y-82773723D01*
X193645922Y-82773723D02*
X193645922Y-82011819D01*
X193645922Y-82011819D02*
X193741160Y-81821342D01*
X193741160Y-81821342D02*
X193931636Y-81726104D01*
X193931636Y-81726104D02*
X194312589Y-81726104D01*
X194312589Y-81726104D02*
X194503065Y-81821342D01*
X194503065Y-81821342D02*
X194598303Y-82011819D01*
X194598303Y-82011819D02*
X194598303Y-82202295D01*
X194598303Y-82202295D02*
X193645922Y-82392771D01*
X195455446Y-83059438D02*
X195455446Y-81726104D01*
X195455446Y-82107057D02*
X195550684Y-81916580D01*
X195550684Y-81916580D02*
X195645922Y-81821342D01*
X195645922Y-81821342D02*
X195836398Y-81726104D01*
X195836398Y-81726104D02*
X196026875Y-81726104D01*
D11*
X166898244Y-69025647D02*
X166898244Y-66525647D01*
X166898244Y-68906600D02*
X166660149Y-69025647D01*
X166660149Y-69025647D02*
X166183958Y-69025647D01*
X166183958Y-69025647D02*
X165945863Y-68906600D01*
X165945863Y-68906600D02*
X165826816Y-68787552D01*
X165826816Y-68787552D02*
X165707768Y-68549457D01*
X165707768Y-68549457D02*
X165707768Y-67835171D01*
X165707768Y-67835171D02*
X165826816Y-67597076D01*
X165826816Y-67597076D02*
X165945863Y-67478028D01*
X165945863Y-67478028D02*
X166183958Y-67358980D01*
X166183958Y-67358980D02*
X166660149Y-67358980D01*
X166660149Y-67358980D02*
X166898244Y-67478028D01*
X169041102Y-68906600D02*
X168803006Y-69025647D01*
X168803006Y-69025647D02*
X168326816Y-69025647D01*
X168326816Y-69025647D02*
X168088721Y-68906600D01*
X168088721Y-68906600D02*
X167969673Y-68668504D01*
X167969673Y-68668504D02*
X167969673Y-67716123D01*
X167969673Y-67716123D02*
X168088721Y-67478028D01*
X168088721Y-67478028D02*
X168326816Y-67358980D01*
X168326816Y-67358980D02*
X168803006Y-67358980D01*
X168803006Y-67358980D02*
X169041102Y-67478028D01*
X169041102Y-67478028D02*
X169160149Y-67716123D01*
X169160149Y-67716123D02*
X169160149Y-67954219D01*
X169160149Y-67954219D02*
X167969673Y-68192314D01*
X170231578Y-69025647D02*
X170231578Y-66525647D01*
X170231578Y-67478028D02*
X170469673Y-67358980D01*
X170469673Y-67358980D02*
X170945863Y-67358980D01*
X170945863Y-67358980D02*
X171183959Y-67478028D01*
X171183959Y-67478028D02*
X171303006Y-67597076D01*
X171303006Y-67597076D02*
X171422054Y-67835171D01*
X171422054Y-67835171D02*
X171422054Y-68549457D01*
X171422054Y-68549457D02*
X171303006Y-68787552D01*
X171303006Y-68787552D02*
X171183959Y-68906600D01*
X171183959Y-68906600D02*
X170945863Y-69025647D01*
X170945863Y-69025647D02*
X170469673Y-69025647D01*
X170469673Y-69025647D02*
X170231578Y-68906600D01*
X173564911Y-67358980D02*
X173564911Y-69025647D01*
X172493483Y-67358980D02*
X172493483Y-68668504D01*
X172493483Y-68668504D02*
X172612530Y-68906600D01*
X172612530Y-68906600D02*
X172850625Y-69025647D01*
X172850625Y-69025647D02*
X173207768Y-69025647D01*
X173207768Y-69025647D02*
X173445864Y-68906600D01*
X173445864Y-68906600D02*
X173564911Y-68787552D01*
X175826816Y-67358980D02*
X175826816Y-69382790D01*
X175826816Y-69382790D02*
X175707769Y-69620885D01*
X175707769Y-69620885D02*
X175588721Y-69739933D01*
X175588721Y-69739933D02*
X175350626Y-69858980D01*
X175350626Y-69858980D02*
X174993483Y-69858980D01*
X174993483Y-69858980D02*
X174755388Y-69739933D01*
X175826816Y-68906600D02*
X175588721Y-69025647D01*
X175588721Y-69025647D02*
X175112530Y-69025647D01*
X175112530Y-69025647D02*
X174874435Y-68906600D01*
X174874435Y-68906600D02*
X174755388Y-68787552D01*
X174755388Y-68787552D02*
X174636340Y-68549457D01*
X174636340Y-68549457D02*
X174636340Y-67835171D01*
X174636340Y-67835171D02*
X174755388Y-67597076D01*
X174755388Y-67597076D02*
X174874435Y-67478028D01*
X174874435Y-67478028D02*
X175112530Y-67358980D01*
X175112530Y-67358980D02*
X175588721Y-67358980D01*
X175588721Y-67358980D02*
X175826816Y-67478028D01*
X178088721Y-67358980D02*
X178088721Y-69382790D01*
X178088721Y-69382790D02*
X177969674Y-69620885D01*
X177969674Y-69620885D02*
X177850626Y-69739933D01*
X177850626Y-69739933D02*
X177612531Y-69858980D01*
X177612531Y-69858980D02*
X177255388Y-69858980D01*
X177255388Y-69858980D02*
X177017293Y-69739933D01*
X178088721Y-68906600D02*
X177850626Y-69025647D01*
X177850626Y-69025647D02*
X177374435Y-69025647D01*
X177374435Y-69025647D02*
X177136340Y-68906600D01*
X177136340Y-68906600D02*
X177017293Y-68787552D01*
X177017293Y-68787552D02*
X176898245Y-68549457D01*
X176898245Y-68549457D02*
X176898245Y-67835171D01*
X176898245Y-67835171D02*
X177017293Y-67597076D01*
X177017293Y-67597076D02*
X177136340Y-67478028D01*
X177136340Y-67478028D02*
X177374435Y-67358980D01*
X177374435Y-67358980D02*
X177850626Y-67358980D01*
X177850626Y-67358980D02*
X178088721Y-67478028D01*
X180231579Y-68906600D02*
X179993483Y-69025647D01*
X179993483Y-69025647D02*
X179517293Y-69025647D01*
X179517293Y-69025647D02*
X179279198Y-68906600D01*
X179279198Y-68906600D02*
X179160150Y-68668504D01*
X179160150Y-68668504D02*
X179160150Y-67716123D01*
X179160150Y-67716123D02*
X179279198Y-67478028D01*
X179279198Y-67478028D02*
X179517293Y-67358980D01*
X179517293Y-67358980D02*
X179993483Y-67358980D01*
X179993483Y-67358980D02*
X180231579Y-67478028D01*
X180231579Y-67478028D02*
X180350626Y-67716123D01*
X180350626Y-67716123D02*
X180350626Y-67954219D01*
X180350626Y-67954219D02*
X179160150Y-68192314D01*
X181422055Y-69025647D02*
X181422055Y-67358980D01*
X181422055Y-67835171D02*
X181541102Y-67597076D01*
X181541102Y-67597076D02*
X181660150Y-67478028D01*
X181660150Y-67478028D02*
X181898245Y-67358980D01*
X181898245Y-67358980D02*
X182136340Y-67358980D01*
X199283244Y-69279647D02*
X199283244Y-66779647D01*
X199283244Y-69160600D02*
X199045149Y-69279647D01*
X199045149Y-69279647D02*
X198568958Y-69279647D01*
X198568958Y-69279647D02*
X198330863Y-69160600D01*
X198330863Y-69160600D02*
X198211816Y-69041552D01*
X198211816Y-69041552D02*
X198092768Y-68803457D01*
X198092768Y-68803457D02*
X198092768Y-68089171D01*
X198092768Y-68089171D02*
X198211816Y-67851076D01*
X198211816Y-67851076D02*
X198330863Y-67732028D01*
X198330863Y-67732028D02*
X198568958Y-67612980D01*
X198568958Y-67612980D02*
X199045149Y-67612980D01*
X199045149Y-67612980D02*
X199283244Y-67732028D01*
X201426102Y-69160600D02*
X201188006Y-69279647D01*
X201188006Y-69279647D02*
X200711816Y-69279647D01*
X200711816Y-69279647D02*
X200473721Y-69160600D01*
X200473721Y-69160600D02*
X200354673Y-68922504D01*
X200354673Y-68922504D02*
X200354673Y-67970123D01*
X200354673Y-67970123D02*
X200473721Y-67732028D01*
X200473721Y-67732028D02*
X200711816Y-67612980D01*
X200711816Y-67612980D02*
X201188006Y-67612980D01*
X201188006Y-67612980D02*
X201426102Y-67732028D01*
X201426102Y-67732028D02*
X201545149Y-67970123D01*
X201545149Y-67970123D02*
X201545149Y-68208219D01*
X201545149Y-68208219D02*
X200354673Y-68446314D01*
X202616578Y-69279647D02*
X202616578Y-66779647D01*
X202616578Y-67732028D02*
X202854673Y-67612980D01*
X202854673Y-67612980D02*
X203330863Y-67612980D01*
X203330863Y-67612980D02*
X203568959Y-67732028D01*
X203568959Y-67732028D02*
X203688006Y-67851076D01*
X203688006Y-67851076D02*
X203807054Y-68089171D01*
X203807054Y-68089171D02*
X203807054Y-68803457D01*
X203807054Y-68803457D02*
X203688006Y-69041552D01*
X203688006Y-69041552D02*
X203568959Y-69160600D01*
X203568959Y-69160600D02*
X203330863Y-69279647D01*
X203330863Y-69279647D02*
X202854673Y-69279647D01*
X202854673Y-69279647D02*
X202616578Y-69160600D01*
X205949911Y-67612980D02*
X205949911Y-69279647D01*
X204878483Y-67612980D02*
X204878483Y-68922504D01*
X204878483Y-68922504D02*
X204997530Y-69160600D01*
X204997530Y-69160600D02*
X205235625Y-69279647D01*
X205235625Y-69279647D02*
X205592768Y-69279647D01*
X205592768Y-69279647D02*
X205830864Y-69160600D01*
X205830864Y-69160600D02*
X205949911Y-69041552D01*
X208211816Y-67612980D02*
X208211816Y-69636790D01*
X208211816Y-69636790D02*
X208092769Y-69874885D01*
X208092769Y-69874885D02*
X207973721Y-69993933D01*
X207973721Y-69993933D02*
X207735626Y-70112980D01*
X207735626Y-70112980D02*
X207378483Y-70112980D01*
X207378483Y-70112980D02*
X207140388Y-69993933D01*
X208211816Y-69160600D02*
X207973721Y-69279647D01*
X207973721Y-69279647D02*
X207497530Y-69279647D01*
X207497530Y-69279647D02*
X207259435Y-69160600D01*
X207259435Y-69160600D02*
X207140388Y-69041552D01*
X207140388Y-69041552D02*
X207021340Y-68803457D01*
X207021340Y-68803457D02*
X207021340Y-68089171D01*
X207021340Y-68089171D02*
X207140388Y-67851076D01*
X207140388Y-67851076D02*
X207259435Y-67732028D01*
X207259435Y-67732028D02*
X207497530Y-67612980D01*
X207497530Y-67612980D02*
X207973721Y-67612980D01*
X207973721Y-67612980D02*
X208211816Y-67732028D01*
X210949912Y-67612980D02*
X211902293Y-67612980D01*
X211307055Y-66779647D02*
X211307055Y-68922504D01*
X211307055Y-68922504D02*
X211426102Y-69160600D01*
X211426102Y-69160600D02*
X211664197Y-69279647D01*
X211664197Y-69279647D02*
X211902293Y-69279647D01*
X213807054Y-69279647D02*
X213807054Y-67970123D01*
X213807054Y-67970123D02*
X213688007Y-67732028D01*
X213688007Y-67732028D02*
X213449911Y-67612980D01*
X213449911Y-67612980D02*
X212973721Y-67612980D01*
X212973721Y-67612980D02*
X212735626Y-67732028D01*
X213807054Y-69160600D02*
X213568959Y-69279647D01*
X213568959Y-69279647D02*
X212973721Y-69279647D01*
X212973721Y-69279647D02*
X212735626Y-69160600D01*
X212735626Y-69160600D02*
X212616578Y-68922504D01*
X212616578Y-68922504D02*
X212616578Y-68684409D01*
X212616578Y-68684409D02*
X212735626Y-68446314D01*
X212735626Y-68446314D02*
X212973721Y-68327266D01*
X212973721Y-68327266D02*
X213568959Y-68327266D01*
X213568959Y-68327266D02*
X213807054Y-68208219D01*
X214997531Y-69279647D02*
X214997531Y-67612980D01*
X214997531Y-68089171D02*
X215116578Y-67851076D01*
X215116578Y-67851076D02*
X215235626Y-67732028D01*
X215235626Y-67732028D02*
X215473721Y-67612980D01*
X215473721Y-67612980D02*
X215711816Y-67612980D01*
X217616578Y-67612980D02*
X217616578Y-69636790D01*
X217616578Y-69636790D02*
X217497531Y-69874885D01*
X217497531Y-69874885D02*
X217378483Y-69993933D01*
X217378483Y-69993933D02*
X217140388Y-70112980D01*
X217140388Y-70112980D02*
X216783245Y-70112980D01*
X216783245Y-70112980D02*
X216545150Y-69993933D01*
X217616578Y-69160600D02*
X217378483Y-69279647D01*
X217378483Y-69279647D02*
X216902292Y-69279647D01*
X216902292Y-69279647D02*
X216664197Y-69160600D01*
X216664197Y-69160600D02*
X216545150Y-69041552D01*
X216545150Y-69041552D02*
X216426102Y-68803457D01*
X216426102Y-68803457D02*
X216426102Y-68089171D01*
X216426102Y-68089171D02*
X216545150Y-67851076D01*
X216545150Y-67851076D02*
X216664197Y-67732028D01*
X216664197Y-67732028D02*
X216902292Y-67612980D01*
X216902292Y-67612980D02*
X217378483Y-67612980D01*
X217378483Y-67612980D02*
X217616578Y-67732028D01*
X219759436Y-69160600D02*
X219521340Y-69279647D01*
X219521340Y-69279647D02*
X219045150Y-69279647D01*
X219045150Y-69279647D02*
X218807055Y-69160600D01*
X218807055Y-69160600D02*
X218688007Y-68922504D01*
X218688007Y-68922504D02*
X218688007Y-67970123D01*
X218688007Y-67970123D02*
X218807055Y-67732028D01*
X218807055Y-67732028D02*
X219045150Y-67612980D01*
X219045150Y-67612980D02*
X219521340Y-67612980D01*
X219521340Y-67612980D02*
X219759436Y-67732028D01*
X219759436Y-67732028D02*
X219878483Y-67970123D01*
X219878483Y-67970123D02*
X219878483Y-68208219D01*
X219878483Y-68208219D02*
X218688007Y-68446314D01*
X220592769Y-67612980D02*
X221545150Y-67612980D01*
X220949912Y-66779647D02*
X220949912Y-68922504D01*
X220949912Y-68922504D02*
X221068959Y-69160600D01*
X221068959Y-69160600D02*
X221307054Y-69279647D01*
X221307054Y-69279647D02*
X221545150Y-69279647D01*
D13*
X174173633Y-62232295D02*
X174173633Y-57232295D01*
X174173633Y-57232295D02*
X176078395Y-57232295D01*
X176078395Y-57232295D02*
X176554585Y-57470390D01*
X176554585Y-57470390D02*
X176792680Y-57708485D01*
X176792680Y-57708485D02*
X177030776Y-58184676D01*
X177030776Y-58184676D02*
X177030776Y-58898961D01*
X177030776Y-58898961D02*
X176792680Y-59375152D01*
X176792680Y-59375152D02*
X176554585Y-59613247D01*
X176554585Y-59613247D02*
X176078395Y-59851342D01*
X176078395Y-59851342D02*
X174173633Y-59851342D01*
X179173633Y-62232295D02*
X179173633Y-58898961D01*
X179173633Y-57232295D02*
X178935537Y-57470390D01*
X178935537Y-57470390D02*
X179173633Y-57708485D01*
X179173633Y-57708485D02*
X179411728Y-57470390D01*
X179411728Y-57470390D02*
X179173633Y-57232295D01*
X179173633Y-57232295D02*
X179173633Y-57708485D01*
X183697442Y-61994200D02*
X183221251Y-62232295D01*
X183221251Y-62232295D02*
X182268870Y-62232295D01*
X182268870Y-62232295D02*
X181792680Y-61994200D01*
X181792680Y-61994200D02*
X181554585Y-61756104D01*
X181554585Y-61756104D02*
X181316489Y-61279914D01*
X181316489Y-61279914D02*
X181316489Y-59851342D01*
X181316489Y-59851342D02*
X181554585Y-59375152D01*
X181554585Y-59375152D02*
X181792680Y-59137057D01*
X181792680Y-59137057D02*
X182268870Y-58898961D01*
X182268870Y-58898961D02*
X183221251Y-58898961D01*
X183221251Y-58898961D02*
X183697442Y-59137057D01*
X186554584Y-62232295D02*
X186078394Y-61994200D01*
X186078394Y-61994200D02*
X185840299Y-61756104D01*
X185840299Y-61756104D02*
X185602203Y-61279914D01*
X185602203Y-61279914D02*
X185602203Y-59851342D01*
X185602203Y-59851342D02*
X185840299Y-59375152D01*
X185840299Y-59375152D02*
X186078394Y-59137057D01*
X186078394Y-59137057D02*
X186554584Y-58898961D01*
X186554584Y-58898961D02*
X187268870Y-58898961D01*
X187268870Y-58898961D02*
X187745061Y-59137057D01*
X187745061Y-59137057D02*
X187983156Y-59375152D01*
X187983156Y-59375152D02*
X188221251Y-59851342D01*
X188221251Y-59851342D02*
X188221251Y-61279914D01*
X188221251Y-61279914D02*
X187983156Y-61756104D01*
X187983156Y-61756104D02*
X187745061Y-61994200D01*
X187745061Y-61994200D02*
X187268870Y-62232295D01*
X187268870Y-62232295D02*
X186554584Y-62232295D01*
X190364109Y-58898961D02*
X190364109Y-63898961D01*
X190364109Y-59137057D02*
X190840299Y-58898961D01*
X190840299Y-58898961D02*
X191792680Y-58898961D01*
X191792680Y-58898961D02*
X192268871Y-59137057D01*
X192268871Y-59137057D02*
X192506966Y-59375152D01*
X192506966Y-59375152D02*
X192745061Y-59851342D01*
X192745061Y-59851342D02*
X192745061Y-61279914D01*
X192745061Y-61279914D02*
X192506966Y-61756104D01*
X192506966Y-61756104D02*
X192268871Y-61994200D01*
X192268871Y-61994200D02*
X191792680Y-62232295D01*
X191792680Y-62232295D02*
X190840299Y-62232295D01*
X190840299Y-62232295D02*
X190364109Y-61994200D01*
X194887919Y-62232295D02*
X194887919Y-58898961D01*
X194887919Y-59851342D02*
X195126014Y-59375152D01*
X195126014Y-59375152D02*
X195364109Y-59137057D01*
X195364109Y-59137057D02*
X195840300Y-58898961D01*
X195840300Y-58898961D02*
X196316490Y-58898961D01*
X198697442Y-62232295D02*
X198221252Y-61994200D01*
X198221252Y-61994200D02*
X197983157Y-61756104D01*
X197983157Y-61756104D02*
X197745061Y-61279914D01*
X197745061Y-61279914D02*
X197745061Y-59851342D01*
X197745061Y-59851342D02*
X197983157Y-59375152D01*
X197983157Y-59375152D02*
X198221252Y-59137057D01*
X198221252Y-59137057D02*
X198697442Y-58898961D01*
X198697442Y-58898961D02*
X199411728Y-58898961D01*
X199411728Y-58898961D02*
X199887919Y-59137057D01*
X199887919Y-59137057D02*
X200126014Y-59375152D01*
X200126014Y-59375152D02*
X200364109Y-59851342D01*
X200364109Y-59851342D02*
X200364109Y-61279914D01*
X200364109Y-61279914D02*
X200126014Y-61756104D01*
X200126014Y-61756104D02*
X199887919Y-61994200D01*
X199887919Y-61994200D02*
X199411728Y-62232295D01*
X199411728Y-62232295D02*
X198697442Y-62232295D01*
X202506967Y-62232295D02*
X202506967Y-57232295D01*
X202506967Y-59137057D02*
X202983157Y-58898961D01*
X202983157Y-58898961D02*
X203935538Y-58898961D01*
X203935538Y-58898961D02*
X204411729Y-59137057D01*
X204411729Y-59137057D02*
X204649824Y-59375152D01*
X204649824Y-59375152D02*
X204887919Y-59851342D01*
X204887919Y-59851342D02*
X204887919Y-61279914D01*
X204887919Y-61279914D02*
X204649824Y-61756104D01*
X204649824Y-61756104D02*
X204411729Y-61994200D01*
X204411729Y-61994200D02*
X203935538Y-62232295D01*
X203935538Y-62232295D02*
X202983157Y-62232295D01*
X202983157Y-62232295D02*
X202506967Y-61994200D01*
X208935539Y-61994200D02*
X208459348Y-62232295D01*
X208459348Y-62232295D02*
X207506967Y-62232295D01*
X207506967Y-62232295D02*
X207030777Y-61994200D01*
X207030777Y-61994200D02*
X206792681Y-61518009D01*
X206792681Y-61518009D02*
X206792681Y-59613247D01*
X206792681Y-59613247D02*
X207030777Y-59137057D01*
X207030777Y-59137057D02*
X207506967Y-58898961D01*
X207506967Y-58898961D02*
X208459348Y-58898961D01*
X208459348Y-58898961D02*
X208935539Y-59137057D01*
X208935539Y-59137057D02*
X209173634Y-59613247D01*
X209173634Y-59613247D02*
X209173634Y-60089438D01*
X209173634Y-60089438D02*
X206792681Y-60565628D01*
D10*
X193640905Y-81099819D02*
X193640905Y-80099819D01*
X193640905Y-80099819D02*
X193879000Y-80099819D01*
X193879000Y-80099819D02*
X194021857Y-80147438D01*
X194021857Y-80147438D02*
X194117095Y-80242676D01*
X194117095Y-80242676D02*
X194164714Y-80337914D01*
X194164714Y-80337914D02*
X194212333Y-80528390D01*
X194212333Y-80528390D02*
X194212333Y-80671247D01*
X194212333Y-80671247D02*
X194164714Y-80861723D01*
X194164714Y-80861723D02*
X194117095Y-80956961D01*
X194117095Y-80956961D02*
X194021857Y-81052200D01*
X194021857Y-81052200D02*
X193879000Y-81099819D01*
X193879000Y-81099819D02*
X193640905Y-81099819D01*
X195164714Y-81099819D02*
X194593286Y-81099819D01*
X194879000Y-81099819D02*
X194879000Y-80099819D01*
X194879000Y-80099819D02*
X194783762Y-80242676D01*
X194783762Y-80242676D02*
X194688524Y-80337914D01*
X194688524Y-80337914D02*
X194593286Y-80385533D01*
X186209279Y-122161819D02*
X186209279Y-122971342D01*
X186209279Y-122971342D02*
X186256898Y-123066580D01*
X186256898Y-123066580D02*
X186304517Y-123114200D01*
X186304517Y-123114200D02*
X186399755Y-123161819D01*
X186399755Y-123161819D02*
X186590231Y-123161819D01*
X186590231Y-123161819D02*
X186685469Y-123114200D01*
X186685469Y-123114200D02*
X186733088Y-123066580D01*
X186733088Y-123066580D02*
X186780707Y-122971342D01*
X186780707Y-122971342D02*
X186780707Y-122161819D01*
X187209279Y-122257057D02*
X187256898Y-122209438D01*
X187256898Y-122209438D02*
X187352136Y-122161819D01*
X187352136Y-122161819D02*
X187590231Y-122161819D01*
X187590231Y-122161819D02*
X187685469Y-122209438D01*
X187685469Y-122209438D02*
X187733088Y-122257057D01*
X187733088Y-122257057D02*
X187780707Y-122352295D01*
X187780707Y-122352295D02*
X187780707Y-122447533D01*
X187780707Y-122447533D02*
X187733088Y-122590390D01*
X187733088Y-122590390D02*
X187161660Y-123161819D01*
X187161660Y-123161819D02*
X187780707Y-123161819D01*
X203868819Y-129318333D02*
X204583104Y-129318333D01*
X204583104Y-129318333D02*
X204725961Y-129365952D01*
X204725961Y-129365952D02*
X204821200Y-129461190D01*
X204821200Y-129461190D02*
X204868819Y-129604047D01*
X204868819Y-129604047D02*
X204868819Y-129699285D01*
X204868819Y-128318333D02*
X204868819Y-128889761D01*
X204868819Y-128604047D02*
X203868819Y-128604047D01*
X203868819Y-128604047D02*
X204011676Y-128699285D01*
X204011676Y-128699285D02*
X204106914Y-128794523D01*
X204106914Y-128794523D02*
X204154533Y-128889761D01*
X184124819Y-131603333D02*
X184839104Y-131603333D01*
X184839104Y-131603333D02*
X184981961Y-131650952D01*
X184981961Y-131650952D02*
X185077200Y-131746190D01*
X185077200Y-131746190D02*
X185124819Y-131889047D01*
X185124819Y-131889047D02*
X185124819Y-131984285D01*
X184220057Y-131174761D02*
X184172438Y-131127142D01*
X184172438Y-131127142D02*
X184124819Y-131031904D01*
X184124819Y-131031904D02*
X184124819Y-130793809D01*
X184124819Y-130793809D02*
X184172438Y-130698571D01*
X184172438Y-130698571D02*
X184220057Y-130650952D01*
X184220057Y-130650952D02*
X184315295Y-130603333D01*
X184315295Y-130603333D02*
X184410533Y-130603333D01*
X184410533Y-130603333D02*
X184553390Y-130650952D01*
X184553390Y-130650952D02*
X185124819Y-131222380D01*
X185124819Y-131222380D02*
X185124819Y-130603333D01*
X221769279Y-123939819D02*
X221769279Y-124749342D01*
X221769279Y-124749342D02*
X221816898Y-124844580D01*
X221816898Y-124844580D02*
X221864517Y-124892200D01*
X221864517Y-124892200D02*
X221959755Y-124939819D01*
X221959755Y-124939819D02*
X222150231Y-124939819D01*
X222150231Y-124939819D02*
X222245469Y-124892200D01*
X222245469Y-124892200D02*
X222293088Y-124844580D01*
X222293088Y-124844580D02*
X222340707Y-124749342D01*
X222340707Y-124749342D02*
X222340707Y-123939819D01*
X223340707Y-124939819D02*
X222769279Y-124939819D01*
X223054993Y-124939819D02*
X223054993Y-123939819D01*
X223054993Y-123939819D02*
X222959755Y-124082676D01*
X222959755Y-124082676D02*
X222864517Y-124177914D01*
X222864517Y-124177914D02*
X222769279Y-124225533D01*
X194212333Y-78736819D02*
X193879000Y-78260628D01*
X193640905Y-78736819D02*
X193640905Y-77736819D01*
X193640905Y-77736819D02*
X194021857Y-77736819D01*
X194021857Y-77736819D02*
X194117095Y-77784438D01*
X194117095Y-77784438D02*
X194164714Y-77832057D01*
X194164714Y-77832057D02*
X194212333Y-77927295D01*
X194212333Y-77927295D02*
X194212333Y-78070152D01*
X194212333Y-78070152D02*
X194164714Y-78165390D01*
X194164714Y-78165390D02*
X194117095Y-78213009D01*
X194117095Y-78213009D02*
X194021857Y-78260628D01*
X194021857Y-78260628D02*
X193640905Y-78260628D01*
X195164714Y-78736819D02*
X194593286Y-78736819D01*
X194879000Y-78736819D02*
X194879000Y-77736819D01*
X194879000Y-77736819D02*
X194783762Y-77879676D01*
X194783762Y-77879676D02*
X194688524Y-77974914D01*
X194688524Y-77974914D02*
X194593286Y-78022533D01*
D14*
%TO.C,D1*%
X189798000Y-79816000D02*
X189798000Y-81286000D01*
X189798000Y-81286000D02*
X192258000Y-81286000D01*
X192258000Y-79816000D02*
X189798000Y-79816000D01*
%TO.C,U2*%
X163515000Y-76650000D02*
X163035000Y-76650000D01*
X163515000Y-76650000D02*
X163515000Y-77070000D01*
X163515000Y-79190000D02*
X163515000Y-79610000D01*
X163515000Y-81730000D02*
X163515000Y-82150000D01*
X163515000Y-84270000D02*
X163515000Y-84690000D01*
X163515000Y-86810000D02*
X163515000Y-87230000D01*
X163515000Y-89350000D02*
X163515000Y-89770000D01*
X163515000Y-91890000D02*
X163515000Y-92310000D01*
X163515000Y-94430000D02*
X163515000Y-94850000D01*
X163515000Y-96970000D02*
X163515000Y-97390000D01*
X163515000Y-99510000D02*
X163515000Y-99930000D01*
X163515000Y-102050000D02*
X163515000Y-102470000D01*
X163515000Y-104590000D02*
X163515000Y-105010000D01*
X163515000Y-107130000D02*
X163515000Y-107550000D01*
X163515000Y-109670000D02*
X163515000Y-110090000D01*
X163515000Y-112210000D02*
X163515000Y-112630000D01*
X163515000Y-114750000D02*
X163515000Y-115170000D01*
X163515000Y-117290000D02*
X163515000Y-117710000D01*
X163515000Y-119830000D02*
X163515000Y-120250000D01*
X163515000Y-122370000D02*
X163515000Y-122790000D01*
X163545324Y-74530063D02*
X163035000Y-74530000D01*
X164125000Y-74110000D02*
X166615000Y-74110000D01*
X164125000Y-125330000D02*
X170525000Y-125330000D01*
X166615000Y-74110000D02*
X166615000Y-75023520D01*
X166615000Y-74110000D02*
X169890000Y-74110000D01*
X166615000Y-75023520D02*
X166615000Y-77416480D01*
X166615000Y-77416480D02*
X166615000Y-122023520D01*
X166615000Y-122023520D02*
X166615000Y-124416480D01*
X166615000Y-124416480D02*
X166615000Y-125330000D01*
X169890000Y-74110000D02*
X178360000Y-74110000D01*
X170225000Y-74110000D02*
X170225000Y-75026000D01*
X170225000Y-76404800D02*
X170225000Y-78630000D01*
X170225000Y-78630000D02*
X170521090Y-78630000D01*
X172878910Y-78630000D02*
X175371090Y-78630000D01*
X177725000Y-125330000D02*
X184125000Y-125330000D01*
X177728910Y-78630000D02*
X178025000Y-78630000D01*
X178025000Y-74110000D02*
X178025000Y-75026000D01*
X178025000Y-76404800D02*
X178025000Y-78630000D01*
X178360000Y-74110000D02*
X181635000Y-74110000D01*
X181635000Y-74110000D02*
X181635000Y-75023520D01*
X181635000Y-75023520D02*
X181635000Y-77416480D01*
X181635000Y-77416480D02*
X181635000Y-122023520D01*
X181635000Y-122023520D02*
X181635000Y-124416480D01*
X181635000Y-124416480D02*
X181635000Y-125330000D01*
X184125000Y-74110000D02*
X181635000Y-74110000D01*
X184735000Y-76650000D02*
X184735000Y-77070000D01*
X184735000Y-79190000D02*
X184735000Y-79610000D01*
X184735000Y-81730000D02*
X184735000Y-82150000D01*
X184735000Y-84270000D02*
X184735000Y-84690000D01*
X184735000Y-86810000D02*
X184735000Y-87230000D01*
X184735000Y-89350000D02*
X184735000Y-89770000D01*
X184735000Y-91890000D02*
X184735000Y-92310000D01*
X184735000Y-94430000D02*
X184735000Y-94850000D01*
X184735000Y-96970000D02*
X184735000Y-97390000D01*
X184735000Y-99510000D02*
X184735000Y-99930000D01*
X184735000Y-102050000D02*
X184735000Y-102470000D01*
X184735000Y-104590000D02*
X184735000Y-105010000D01*
X184735000Y-107130000D02*
X184735000Y-107550000D01*
X184735000Y-109670000D02*
X184735000Y-110090000D01*
X184735000Y-112210000D02*
X184735000Y-112630000D01*
X184735000Y-114750000D02*
X184735000Y-115170000D01*
X184735000Y-117290000D02*
X184735000Y-117710000D01*
X184735000Y-119830000D02*
X184735000Y-120250000D01*
X184735000Y-122370000D02*
X184735000Y-122790000D01*
X163545324Y-74530063D02*
G75*
G02*
X164125000Y-74110000I579676J-189937D01*
G01*
X184125000Y-74110000D02*
G75*
G02*
X184704676Y-74530063I0J-610000D01*
G01*
X169365000Y-76220000D02*
G75*
G02*
X167485000Y-76220000I-940000J0D01*
G01*
X167485000Y-76220000D02*
G75*
G02*
X169365000Y-76220000I940000J0D01*
G01*
X169365000Y-123220000D02*
G75*
G02*
X167485000Y-123220000I-940000J0D01*
G01*
X167485000Y-123220000D02*
G75*
G02*
X169365000Y-123220000I940000J0D01*
G01*
X180765000Y-76220000D02*
G75*
G02*
X178885000Y-76220000I-940000J0D01*
G01*
X178885000Y-76220000D02*
G75*
G02*
X180765000Y-76220000I940000J0D01*
G01*
X180765000Y-123220000D02*
G75*
G02*
X178885000Y-123220000I-940000J0D01*
G01*
X178885000Y-123220000D02*
G75*
G02*
X180765000Y-123220000I940000J0D01*
G01*
%TO.C,J1*%
X205854000Y-127655000D02*
X207184000Y-127655000D01*
X205854000Y-128985000D02*
X205854000Y-127655000D01*
X208454000Y-127655000D02*
X213594000Y-127655000D01*
X208454000Y-130315000D02*
X208454000Y-127655000D01*
X208454000Y-130315000D02*
X213594000Y-130315000D01*
X213594000Y-130315000D02*
X213594000Y-127655000D01*
%TO.C,J2*%
X185670000Y-129940000D02*
X188780000Y-129940000D01*
X185670000Y-132600000D02*
X185670000Y-129940000D01*
X185670000Y-132600000D02*
X186240000Y-132600000D01*
X186240000Y-132600000D02*
X186240000Y-134120000D01*
X187760000Y-132600000D02*
X191320000Y-132600000D01*
X190300000Y-129940000D02*
X193860000Y-129940000D01*
X192840000Y-132600000D02*
X196400000Y-132600000D01*
X195380000Y-129940000D02*
X198490000Y-129940000D01*
X197920000Y-129940000D02*
X198490000Y-129940000D01*
X198490000Y-132600000D02*
X198490000Y-129940000D01*
%TO.C,U1*%
X199075000Y-76650000D02*
X198595000Y-76650000D01*
X199075000Y-76650000D02*
X199075000Y-77070000D01*
X199075000Y-79190000D02*
X199075000Y-79610000D01*
X199075000Y-81730000D02*
X199075000Y-82150000D01*
X199075000Y-84270000D02*
X199075000Y-84690000D01*
X199075000Y-86810000D02*
X199075000Y-87230000D01*
X199075000Y-89350000D02*
X199075000Y-89770000D01*
X199075000Y-91890000D02*
X199075000Y-92310000D01*
X199075000Y-94430000D02*
X199075000Y-94850000D01*
X199075000Y-96970000D02*
X199075000Y-97390000D01*
X199075000Y-99510000D02*
X199075000Y-99930000D01*
X199075000Y-102050000D02*
X199075000Y-102470000D01*
X199075000Y-104590000D02*
X199075000Y-105010000D01*
X199075000Y-107130000D02*
X199075000Y-107550000D01*
X199075000Y-109670000D02*
X199075000Y-110090000D01*
X199075000Y-112210000D02*
X199075000Y-112630000D01*
X199075000Y-114750000D02*
X199075000Y-115170000D01*
X199075000Y-117290000D02*
X199075000Y-117710000D01*
X199075000Y-119830000D02*
X199075000Y-120250000D01*
X199075000Y-122370000D02*
X199075000Y-122790000D01*
X199105324Y-74530063D02*
X198595000Y-74530000D01*
X199685000Y-74110000D02*
X202175000Y-74110000D01*
X199685000Y-125330000D02*
X206085000Y-125330000D01*
X202175000Y-74110000D02*
X202175000Y-75023520D01*
X202175000Y-74110000D02*
X205450000Y-74110000D01*
X202175000Y-75023520D02*
X202175000Y-77416480D01*
X202175000Y-77416480D02*
X202175000Y-122023520D01*
X202175000Y-122023520D02*
X202175000Y-124416480D01*
X202175000Y-124416480D02*
X202175000Y-125330000D01*
X205450000Y-74110000D02*
X213920000Y-74110000D01*
X205785000Y-74110000D02*
X205785000Y-75026000D01*
X205785000Y-76404800D02*
X205785000Y-78630000D01*
X205785000Y-78630000D02*
X206081090Y-78630000D01*
X208438910Y-78630000D02*
X210931090Y-78630000D01*
X213285000Y-125330000D02*
X219685000Y-125330000D01*
X213288910Y-78630000D02*
X213585000Y-78630000D01*
X213585000Y-74110000D02*
X213585000Y-75026000D01*
X213585000Y-76404800D02*
X213585000Y-78630000D01*
X213920000Y-74110000D02*
X217195000Y-74110000D01*
X217195000Y-74110000D02*
X217195000Y-75023520D01*
X217195000Y-75023520D02*
X217195000Y-77416480D01*
X217195000Y-77416480D02*
X217195000Y-122023520D01*
X217195000Y-122023520D02*
X217195000Y-124416480D01*
X217195000Y-124416480D02*
X217195000Y-125330000D01*
X219685000Y-74110000D02*
X217195000Y-74110000D01*
X220295000Y-76650000D02*
X220295000Y-77070000D01*
X220295000Y-79190000D02*
X220295000Y-79610000D01*
X220295000Y-81730000D02*
X220295000Y-82150000D01*
X220295000Y-84270000D02*
X220295000Y-84690000D01*
X220295000Y-86810000D02*
X220295000Y-87230000D01*
X220295000Y-89350000D02*
X220295000Y-89770000D01*
X220295000Y-91890000D02*
X220295000Y-92310000D01*
X220295000Y-94430000D02*
X220295000Y-94850000D01*
X220295000Y-96970000D02*
X220295000Y-97390000D01*
X220295000Y-99510000D02*
X220295000Y-99930000D01*
X220295000Y-102050000D02*
X220295000Y-102470000D01*
X220295000Y-104590000D02*
X220295000Y-105010000D01*
X220295000Y-107130000D02*
X220295000Y-107550000D01*
X220295000Y-109670000D02*
X220295000Y-110090000D01*
X220295000Y-112210000D02*
X220295000Y-112630000D01*
X220295000Y-114750000D02*
X220295000Y-115170000D01*
X220295000Y-117290000D02*
X220295000Y-117710000D01*
X220295000Y-119830000D02*
X220295000Y-120250000D01*
X220295000Y-122370000D02*
X220295000Y-122790000D01*
X199105324Y-74530063D02*
G75*
G02*
X199685000Y-74110000I579676J-189937D01*
G01*
X219685000Y-74110000D02*
G75*
G02*
X220264676Y-74530063I0J-610000D01*
G01*
X204925000Y-76220000D02*
G75*
G02*
X203045000Y-76220000I-940000J0D01*
G01*
X203045000Y-76220000D02*
G75*
G02*
X204925000Y-76220000I940000J0D01*
G01*
X204925000Y-123220000D02*
G75*
G02*
X203045000Y-123220000I-940000J0D01*
G01*
X203045000Y-123220000D02*
G75*
G02*
X204925000Y-123220000I940000J0D01*
G01*
X216325000Y-76220000D02*
G75*
G02*
X214445000Y-76220000I-940000J0D01*
G01*
X214445000Y-76220000D02*
G75*
G02*
X216325000Y-76220000I940000J0D01*
G01*
X216325000Y-123220000D02*
G75*
G02*
X214445000Y-123220000I-940000J0D01*
G01*
X214445000Y-123220000D02*
G75*
G02*
X216325000Y-123220000I940000J0D01*
G01*
%TO.C,R1*%
X189798000Y-77326000D02*
X189798000Y-78796000D01*
X189798000Y-78796000D02*
X192258000Y-78796000D01*
X192258000Y-77326000D02*
X189798000Y-77326000D01*
%TD*%
M02*
