M48
; DRILL file {KiCad 8.0.0} date 2024-02-29T00:17:00-0800
; FORMAT={-:-/ absolute / metric / decimal}
; #@! TF.CreationDate,2024-02-29T00:17:00-08:00
; #@! TF.GenerationSoftware,Kicad,Pcbnew,8.0.0
; #@! TF.FileFunction,MixedPlating,1,2
FMAT,2
METRIC
; #@! TA.AperFunction,Plated,PTH,ComponentDrill
T1C1.000
%
G90
G05
T1
X165.235Y-75.59
X165.235Y-78.13
X165.235Y-80.67
X165.235Y-83.21
X165.235Y-85.75
X165.235Y-88.29
X165.235Y-90.83
X165.235Y-118.77
X165.235Y-121.31
X165.235Y-123.85
X171.585Y-123.85
X174.125Y-123.85
X176.665Y-123.85
X183.015Y-75.59
X183.015Y-78.13
X183.015Y-80.67
X183.015Y-83.21
X183.015Y-85.75
X183.015Y-118.77
X183.015Y-121.31
X183.015Y-123.85
X200.795Y-75.59
X200.795Y-78.13
X200.795Y-80.67
X200.795Y-83.21
X200.795Y-85.75
X200.795Y-88.29
X200.795Y-90.83
X200.795Y-118.77
X200.795Y-121.31
X200.795Y-123.85
X207.145Y-123.85
X207.184Y-128.985
X209.685Y-123.85
X209.724Y-128.985
X212.225Y-123.85
X212.264Y-128.985
X218.575Y-75.59
X218.575Y-78.13
X218.575Y-80.67
X218.575Y-83.21
X218.575Y-85.75
X218.575Y-118.77
X218.575Y-121.31
X218.575Y-123.85
M30
